<?xml version="1.0" standalone="no"?>
<!DOCTYPE svg PUBLIC "-//W3C//DTD SVG 20010904//EN"
 "http://www.w3.org/TR/2001/REC-SVG-20010904/DTD/svg10.dtd">
<svg version="1.0" xmlns="http://www.w3.org/2000/svg"
 width="700.000000pt" height="700.000000pt" viewBox="0 0 700.000000 700.000000"
 preserveAspectRatio="xMidYMid meet">
<metadata>
Created by potrace 1.14, written by Peter Selinger 2001-2017
</metadata>
<g transform="translate(0.000000,700.000000) scale(0.100000,-0.100000)"
fill="#000000" stroke="none">
<path d="M443 6212 l-53 -3 0 -200 0 -199 488 0 487 0 -1 195 c0 107 -3 197
-6 200 -6 6 -823 12 -915 7z"/>
<path d="M686 5713 c-1 -1 -53 -3 -116 -4 -162 -3 -221 -22 -152 -51 32 -13
817 -17 895 -4 37 5 47 11 45 23 -6 31 -45 34 -466 37 -112 0 -205 0 -206 -1z"/>
<path d="M390 3221 l0 -2351 487 2 487 3 -2 940 c-2 517 -5 1569 -7 2338 -2
770 -5 1401 -8 1403 -2 2 -218 7 -480 10 l-477 6 0 -2351z"/>
<path d="M5621 4901 c-5 -4 -10 -114 -10 -249 l-1 -242 477 2 476 3 -1 240 c0
132 -1 242 -1 245 -1 8 -928 8 -940 1z"/>
<path d="M1412 4538 l3 -273 530 0 530 0 3 273 2 272 -535 0 -535 0 2 -272z"/>
<path d="M4524 4571 c-2 -2 -4 -109 -4 -238 l0 -233 523 2 522 3 0 233 c0 148
-3 232 -10 233 -31 4 -1027 3 -1031 0z"/>
<path d="M3310 4488 c-325 -76 -755 -189 -791 -209 -26 -13 -24 -55 6 -174 29
-116 46 -145 82 -145 28 0 418 99 718 182 l190 53 -3 35 c-4 42 -15 87 -48
198 -28 95 -20 91 -154 60z"/>
<path d="M5680 4331 c-55 -8 -70 -17 -70 -40 0 -45 8 -46 464 -46 237 0 443 3
459 8 20 5 27 14 27 31 0 51 -3 51 -434 52 -221 1 -421 -2 -446 -5z"/>
<path d="M1527 4189 c-99 -6 -132 -18 -109 -41 7 -7 40 -15 75 -19 87 -9 915
-4 955 6 41 10 39 35 -3 47 -34 11 -769 16 -918 7z"/>
<path d="M5610 2580 l0 -1590 477 2 478 3 0 1585 0 1585 -478 3 -477 2 0
-1590z"/>
<path d="M3430 4088 c-158 -34 -595 -149 -706 -186 -101 -33 -124 -48 -124
-82 0 -22 5 -30 18 -30 33 0 834 219 917 250 20 7 26 16 23 33 -2 18 -10 22
-43 24 -22 1 -60 -3 -85 -9z"/>
<path d="M1410 2570 c0 -1383 1 -1460 18 -1461 23 -1 989 -1 1025 0 l27 1 0
1460 0 1460 -535 0 -535 0 0 -1460z"/>
<path d="M4580 4023 c-42 -5 -60 -19 -60 -44 0 -42 24 -44 476 -47 386 -2 543
4 559 20 3 3 7 15 10 27 8 44 -11 46 -495 47 -250 0 -471 -1 -490 -3z"/>
<path d="M3550 3952 c-26 -4 -440 -107 -565 -141 -38 -11 -114 -31 -168 -45
-194 -52 -185 -37 -136 -228 22 -84 69 -265 105 -403 37 -137 79 -299 95 -360
16 -60 33 -126 39 -145 5 -19 89 -332 186 -695 96 -363 200 -749 230 -859 30
-109 54 -200 54 -202 0 -23 353 58 745 171 160 46 205 65 205 88 0 14 -41 178
-100 397 -22 85 -52 198 -66 250 -14 52 -59 221 -101 375 -41 154 -85 321 -98
370 -13 50 -55 207 -94 350 -39 143 -92 337 -117 430 -107 397 -176 640 -182
646 -4 3 -18 3 -32 1z"/>
<path d="M4524 3855 c-2 -5 -3 -685 -2 -1510 l3 -1500 520 0 520 0 2 1508 c1
1400 0 1507 -15 1508 -9 0 -244 2 -521 2 -328 1 -505 -1 -507 -8z"/>
<path d="M1466 1031 c-81 -12 -74 -71 10 -83 67 -9 954 -3 982 7 14 5 22 15
22 31 0 48 -12 49 -510 50 -256 0 -483 -2 -504 -5z"/>
<path d="M4310 1013 c-14 -2 -110 -27 -215 -54 -451 -119 -591 -161 -627 -185
-40 -26 -50 -60 -20 -66 35 -8 816 199 898 238 37 18 49 40 33 60 -11 14 -22
15 -69 7z"/>
<path d="M5660 913 c-33 -6 -50 -21 -50 -44 0 -41 27 -43 440 -45 386 -2 496
4 510 27 14 22 -2 49 -34 58 -31 8 -819 12 -866 4z"/>
<path d="M1409 638 c0 -236 -4 -333 -15 -378 -5 -23 -6 -24 -16 -5 -7 11 -12
88 -13 190 0 94 -4 175 -7 180 -5 8 -875 13 -955 6 -10 -1 -13 -48 -13 -201
l0 -200 -195 0 -195 0 0 -115 0 -115 3500 0 3501 0 -3 117 -3 117 -130 4 c-71
1 -166 4 -210 5 l-80 2 -2 35 c-1 19 -4 131 -6 248 -3 118 -7 215 -9 218 -4 3
-323 5 -785 4 l-162 0 0 -210 c0 -211 -6 -296 -22 -305 -14 -9 -22 66 -23 223
l-1 153 -470 -1 c-446 -1 -566 -8 -573 -30 -8 -23 -21 -6 -37 47 -9 32 -26 86
-36 120 -10 34 -19 68 -19 76 0 7 -6 21 -12 30 -12 15 -18 15 -68 2 -30 -8
-66 -16 -80 -19 -35 -7 -541 -142 -625 -167 -93 -28 -143 -55 -156 -83 -12
-27 -7 -60 35 -200 14 -49 24 -98 20 -108 -12 -40 -40 -42 -561 -46 l-503 -3
0 320 0 321 -535 0 -535 0 -1 -232z m3111 -296 l0 -114 -428 3 c-236 1 -437 5
-447 9 -22 8 72 36 530 160 282 76 321 85 333 71 8 -10 12 -52 12 -129z"/>
<path d="M430 787 c-24 -8 -36 -19 -38 -34 -6 -42 27 -45 438 -46 524 -1 530
0 530 48 0 19 -7 26 -32 33 -51 14 -856 13 -898 -1z"/>
<path d="M4687 774 c-1 -2 -33 -4 -70 -5 -37 -1 -75 -7 -83 -14 -23 -17 -9
-53 24 -62 35 -10 939 -10 973 -1 38 11 44 44 12 65 -21 14 -74 16 -439 18
-228 0 -416 0 -417 -1z"/>
</g>
</svg>
