<?xml version="1.0" encoding="UTF-8" standalone="no"?>

<svg width="22" height="19" viewBox="0 0 22 19" fill="none" xmlns="http://www.w3.org/2000/svg">
  <path d="M18.5123 13.264H6.98436L4.53488 2.86725H20.5459L18.5123 13.264Z" stroke="white" stroke-width="2" stroke-linecap="round" stroke-linejoin="round"/>
  <path d="M9.52532 17.6307C9.86984 17.6307 10.1491 17.3514 10.1491 17.0069C10.1491 16.6623 9.86984 16.3831 9.52532 16.3831C9.18081 16.3831 8.90152 16.6623 8.90152 17.0069C8.90152 17.3514 9.18081 17.6307 9.52532 17.6307Z" stroke="white" stroke-width="2" stroke-linecap="round" stroke-linejoin="round"/>
  <path d="M15.7634 17.6307C16.1079 17.6307 16.3872 17.3514 16.3872 17.0069C16.3872 16.6623 16.1079 16.3831 15.7634 16.3831C15.4189 16.3831 15.1396 16.6623 15.1396 17.0069C15.1396 17.3514 15.4189 17.6307 15.7634 17.6307Z" stroke="white" stroke-width="2" stroke-linecap="round" stroke-linejoin="round"/>
  <path d="M19.2983 8.06561H13.4761" stroke="white" stroke-width="2" stroke-linecap="round" stroke-linejoin="round"/>
  <path d="M4.55986 2.9421L3.49107 1.87748C2.97602 1.36109 2.28591 1.05685 1.55728 1.02495L1 1" stroke="white" stroke-width="2" stroke-linecap="round" stroke-linejoin="round"/>
</svg>