<?xml version="1.0" encoding="UTF-8" standalone="no"?>
<!-- Created with Inkscape (http://www.inkscape.org/) -->

<svg
   width="88.114998mm"
   height="23.161158mm"
   viewBox="0 0 88.114997 23.161158"
   version="1.1"
   id="svg1"
   xml:space="preserve"
   inkscape:version="1.3 (0e150ed6c4, 2023-07-21)"
   sodipodi:docname="logo.svg"
   inkscape:export-filename="Logo_.svg"
   inkscape:export-xdpi="96"
   inkscape:export-ydpi="96"
   xmlns:inkscape="http://www.inkscape.org/namespaces/inkscape"
   xmlns:sodipodi="http://sodipodi.sourceforge.net/DTD/sodipodi-0.dtd"
   xmlns="http://www.w3.org/2000/svg"
   xmlns:svg="http://www.w3.org/2000/svg"><sodipodi:namedview
     id="namedview1"
     pagecolor="#505050"
     bordercolor="#eeeeee"
     borderopacity="1"
     inkscape:showpageshadow="0"
     inkscape:pageopacity="0"
     inkscape:pagecheckerboard="0"
     inkscape:deskcolor="#505050"
     inkscape:document-units="mm"
     inkscape:zoom="2.8044052"
     inkscape:cx="133.7182"
     inkscape:cy="68.285426"
     inkscape:window-width="1920"
     inkscape:window-height="1001"
     inkscape:window-x="-9"
     inkscape:window-y="-9"
     inkscape:window-maximized="1"
     inkscape:current-layer="layer1"
     showguides="false"><sodipodi:guide
       position="85.571472,39.294259"
       orientation="0,-1"
       id="guide71"
       inkscape:locked="false" /></sodipodi:namedview><defs
     id="defs1"><clipPath
       clipPathUnits="userSpaceOnUse"
       id="clipPath3"><g
         id="g4"><g
           inkscape:label="Clip"
           id="use3"
           clip-path="url(#clipPath3)"><path
             style="fill:#000000"
             d="M 1.2288619,23.511346 V 23.045679 H 2.7105287 4.1921953 V 22.326012 21.606345 H 5.927862 7.663528 v 0.724664 c 0,0.461549 0.03074,0.705664 0.08467,0.672337 0.04939,-0.03052 0.08467,-0.50888 0.08467,-1.147997 v -1.09567 h 1.905 1.905 v 1.143 1.143 h 1.904999 c 2.154423,0 2.010549,0.05764 1.777084,-0.711956 -0.217368,-0.716533 -0.301697,-0.653192 1.513776,-1.137019 0.901923,-0.240364 1.659819,-0.437025 1.684213,-0.437025 0.0244,0 0.113342,0.276225 0.197662,0.613833 0.08432,0.337608 0.167418,0.547158 0.184662,0.465667 0.02871,-0.135653 0.188144,-0.148167 1.887811,-0.148167 h 1.856459 v 0.677333 c 0,0.395112 0.03528,0.677334 0.08467,0.677334 0.05131,0 0.08467,-0.366889 0.08467,-0.931334 v -0.931333 h 1.690469 1.690469 l 0.02403,0.910167 0.02403,0.910167 1.545167,0.02308 1.545166,0.02308 v 0.463757 0.463756 H 15.283528 1.2288619 Z M 18.924195,22.574307 c 0,-0.409931 -0.01931,-0.465402 -0.148167,-0.425568 -0.08149,0.02519 -0.79134,0.216909 -1.577441,0.426036 -0.786101,0.209127 -1.449676,0.400632 -1.474611,0.425567 -0.02493,0.02493 0.684913,0.04534 1.577441,0.04534 h 1.622778 z m 25.592751,0.213069 c -1.145965,-0.453943 -1.617761,-1.90352 -1.009938,-3.103 0.641386,-1.265715 2.346926,-1.710524 3.311473,-0.86364 0.539173,0.4734 0.912778,1.509352 0.589121,1.633551 -0.07366,0.02826 -0.745738,0.05139 -1.493511,0.05139 h -1.359587 l 0.04695,0.454863 c 0.150848,1.461581 1.252059,1.928156 2.453825,1.039667 0.163676,-0.121009 0.260094,-0.145888 0.32271,-0.08327 0.126445,0.126445 -0.371809,0.604806 -0.851507,0.817511 -0.564034,0.2501 -1.452692,0.273506 -2.009532,0.05293 z m 1.561277,-2.672995 c 0.103233,-0.02767 0.21016,-0.121096 0.237616,-0.207603 0.07233,-0.227886 -0.09201,-0.74783 -0.309548,-0.979393 -0.232997,-0.248014 -0.741888,-0.27407 -0.946079,-0.04844 -0.198852,0.219729 -0.397351,0.734945 -0.397351,1.031349 v 0.256719 l 0.613833,-0.0012 c 0.337608,-6.36e-4 0.698296,-0.0238 0.801529,-0.05147 z m 3.853365,2.628772 c -0.791739,-0.394541 -1.171853,-1.138568 -1.099841,-2.152808 0.08261,-1.16345 0.893068,-2.046795 1.99066,-2.169675 0.319643,-0.03578 0.484606,-0.0026 0.804287,0.161813 l 0.402166,0.206831 -0.0012,-1.067984 c -0.0014,-1.322569 -0.02523,-1.416617 -0.388772,-1.536598 -0.514079,-0.169662 -0.305643,-0.251054 0.642922,-0.251054 h 0.930327 l 0.02217,3.238501 0.02217,3.2385 0.318031,0.155393 c 0.174916,0.08547 0.296493,0.190241 0.270169,0.232833 -0.02632,0.04259 -0.445662,0.07744 -0.931863,0.07744 H 52.02881 V 22.563402 22.25046 l -0.275166,0.26045 c -0.151342,0.143247 -0.358387,0.303121 -0.460101,0.355275 -0.3175,0.1628 -0.892677,0.110843 -1.362005,-0.123033 z m 1.577125,-0.419912 c 0.140164,-0.11794 0.301693,-0.356065 0.358953,-0.529166 0.118995,-0.359729 0.151719,-1.768608 0.05199,-2.238404 -0.168774,-0.795066 -0.911228,-1.1067 -1.361569,-0.5715 -0.281069,0.334032 -0.350745,0.693534 -0.344113,1.775508 0.0045,0.741216 0.03611,0.948062 0.189905,1.244293 0.30086,0.579508 0.669093,0.685919 1.104832,0.319269 z m 13.337674,0.554792 c -0.489496,-0.197779 -0.720303,-0.862059 -0.495093,-1.424914 0.171384,-0.42833 0.376908,-0.58083 1.266566,-0.939791 0.828718,-0.334374 1.058333,-0.562586 1.058333,-1.051865 0,-0.53287 -0.187052,-0.748791 -0.621225,-0.717098 -0.339794,0.0248 -0.356504,0.04004 -0.508184,0.46324 -0.116587,0.325292 -0.218335,0.463066 -0.396472,0.536853 -0.307566,0.127398 -0.579655,0.03952 -0.677927,-0.218956 -0.152625,-0.401433 0.161578,-0.80924 0.782358,-1.01543 0.540145,-0.179407 1.587134,-0.136331 2.039013,0.08389 0.501151,0.244234 0.545052,0.406931 0.580747,2.152254 0.02893,1.414732 0.04627,1.563482 0.194907,1.672166 0.08973,0.06561 0.254291,0.119297 0.365688,0.119297 0.368269,0 0.148692,0.208436 -0.32587,0.309336 -0.924481,0.19656 -1.433035,0.09966 -1.433035,-0.27305 0,-0.142507 -0.218398,-0.162387 -0.301782,-0.02747 -0.183622,0.297107 -1.113758,0.49892 -1.528024,0.331538 z m 1.407362,-0.65068 c 0.336309,-0.198663 0.422444,-0.446727 0.422444,-1.216606 v -0.672298 l -0.486833,0.304114 c -0.267758,0.167263 -0.553508,0.38056 -0.635,0.473995 -0.210855,0.241756 -0.198716,0.862572 0.02117,1.082454 0.206234,0.206235 0.365784,0.212902 0.678222,0.02834 z m -34.714221,0.521993 c 0,-0.06985 0.07441,-0.127 0.165349,-0.127 0.293092,0 0.599071,-0.192539 0.662181,-0.416682 0.03381,-0.120075 0.06147,-1.363053 0.06147,-2.762172 0,-2.292778 -0.01482,-2.566454 -0.150119,-2.772834 -0.101823,-0.155313 -0.224397,-0.229397 -0.381,-0.230276 -0.276105,-0.0016 -0.48383,-0.11741 -0.413764,-0.23078 0.02834,-0.04586 0.914825,-0.10713 2.02168,-0.139728 2.170848,-0.06393 2.684991,0.0016 3.289766,0.419201 0.37307,0.257618 0.671103,0.769522 0.671103,1.152691 0,0.733702 -0.694021,1.475963 -1.561569,1.670112 l -0.492271,0.110166 0.478748,0.194577 c 0.263312,0.107018 0.53771,0.243512 0.609775,0.30332 0.198634,0.164852 0.41277,0.634592 0.658582,1.444699 0.24669,0.813003 0.455301,1.079468 0.957476,1.223013 0.177609,0.05077 0.31351,0.126969 0.302002,0.169333 -0.01151,0.04237 -0.533807,0.08762 -1.160664,0.100559 -1.125436,0.02324 -1.141433,0.02095 -1.274594,-0.182278 -0.07417,-0.113196 -0.231205,-0.676236 -0.34897,-1.2512 -0.117765,-0.574964 -0.279028,-1.159688 -0.358363,-1.299388 -0.178303,-0.313972 -0.628212,-0.550028 -1.048652,-0.550202 l -0.3175,-1.32e-4 v 1.312334 c 0,1.476327 0.04128,1.587537 0.630278,1.698033 0.173324,0.03252 0.301055,0.106364 0.301055,0.174056 0,0.09631 -0.298693,0.117578 -1.650999,0.117578 -1.411112,0 -1.651,-0.01845 -1.651,-0.127 z m 3.555999,-3.790087 c 0.264192,-0.131227 0.428912,-0.287316 0.537276,-0.509124 0.191007,-0.39097 0.198652,-1.056889 0.01619,-1.409743 -0.23499,-0.45442 -0.836115,-0.721415 -1.415598,-0.628752 l -0.323196,0.05168 v 1.397687 1.397687 l 0.402167,-0.0551 c 0.221192,-0.0303 0.573616,-0.140255 0.783166,-0.244341 z m 4.253204,3.815143 c 0.01869,-0.05607 0.16468,-0.135811 0.324423,-0.177205 0.159744,-0.04139 0.318494,-0.119344 0.352778,-0.173223 0.07688,-0.120815 0.06956,-3.06924 -0.0083,-3.346935 -0.03693,-0.131698 -0.158054,-0.233844 -0.351393,-0.296334 -0.162273,-0.05245 -0.286485,-0.13346 -0.276028,-0.180026 0.02029,-0.09034 0.711113,-0.187379 1.441487,-0.202478 l 0.4445,-0.0092 v 1.931151 c 0,2.092589 0.01523,2.168305 0.460248,2.28732 0.136612,0.03654 0.263567,0.111976 0.282124,0.167645 0.02524,0.07573 -0.310939,0.101218 -1.335039,0.101218 -1.029538,0 -1.360355,-0.02527 -1.334796,-0.101944 z m 15.558796,-0.02506 c 0,-0.07488 0.07819,-0.127533 0.1905,-0.128297 0.431604,-0.0029 0.442557,-0.04522 0.472232,-1.823076 0.02473,-1.481345 0.01183,-1.679023 -0.118956,-1.82354 -0.08068,-0.08915 -0.207457,-0.162671 -0.281732,-0.163384 -0.07427,-7.13e-4 -0.191876,-0.03723 -0.261336,-0.08114 -0.243292,-0.153814 0.03831,-0.243753 0.951792,-0.303988 l 0.910167,-0.06002 v 0.400081 0.400081 l 0.265305,-0.22324 c 0.773004,-0.65044 1.563006,-0.729216 2.197719,-0.219146 l 0.346443,0.278409 0.249425,-0.184408 c 0.577253,-0.426782 1.481937,-0.552728 2.013927,-0.28037 0.527677,0.27015 0.599847,0.53992 0.599847,2.242214 0,1.391266 0.01271,1.516864 0.169333,1.673488 0.09313,0.09313 0.226484,0.169334 0.296334,0.169334 0.06985,0 0.127,0.05715 0.127,0.127 0,0.106841 -0.188148,0.127 -1.185334,0.127 -0.967718,0 -1.185333,-0.02208 -1.185333,-0.120273 0,-0.06615 0.112573,-0.144998 0.250162,-0.175218 0.153297,-0.03367 0.272884,-0.126429 0.308842,-0.23956 0.03227,-0.101539 0.05871,-0.813731 0.05876,-1.58265 8.4e-5,-1.535448 -0.08754,-1.894996 -0.48619,-1.995051 -0.287497,-0.07216 -0.482434,0.0083 -0.790464,0.32606 -0.319588,0.329731 -0.437442,0.952663 -0.440096,2.326191 -0.0015,0.756279 0.02009,0.889601 0.167656,1.037167 0.09313,0.09313 0.245533,0.169334 0.338666,0.169334 0.09407,0 0.169334,0.05644 0.169334,0.127 0,0.107049 -0.192852,0.127 -1.227667,0.127 -1.231559,0 -1.51753,-0.07709 -0.980455,-0.264321 0.135967,-0.0474 0.272171,-0.150191 0.302675,-0.228429 0.08931,-0.229067 0.156801,-2.223445 0.09231,-2.727875 -0.07672,-0.60011 -0.222249,-0.792576 -0.599272,-0.792576 -0.362531,0 -0.732225,0.325424 -0.883679,0.77786 -0.05787,0.172887 -0.125734,0.812788 -0.150799,1.422001 -0.04975,1.209122 0.0037,1.435999 0.358997,1.525185 0.115073,0.02888 0.209223,0.105531 0.209223,0.170333 0,0.09523 -0.235357,0.117822 -1.227666,0.117822 -1.034815,0 -1.227667,-0.01995 -1.227667,-0.127 z m 14.60463,0.04173 c -0.02898,-0.0469 0.0069,-0.104046 0.07967,-0.127 0.0728,-0.02295 0.190088,-0.05981 0.260637,-0.0819 0.07055,-0.02209 0.1669,-0.141768 0.214115,-0.265951 0.114141,-0.300215 0.12384,-3.096205 0.01147,-3.306174 -0.04771,-0.08914 -0.184943,-0.214636 -0.304965,-0.27887 -0.120022,-0.06423 -0.218222,-0.143688 -0.218222,-0.176565 0,-0.09376 0.476318,-0.16561 1.097848,-0.16561 h 0.568682 l 0.09807,0.327323 c 0.05394,0.180028 0.09807,0.39751 0.09807,0.483295 0,0.120724 0.08132,0.07636 0.359834,-0.196315 0.633544,-0.620258 1.322684,-0.773973 1.932739,-0.431103 0.528645,0.297116 0.585909,0.515745 0.58739,2.242596 7.14e-4,0.831162 0.03006,1.556446 0.06522,1.611741 0.03516,0.0553 0.167926,0.140077 0.295036,0.188404 0.495769,0.188491 0.229639,0.261393 -0.954223,0.261393 -1.217975,0 -1.396467,-0.0558 -0.937556,-0.293116 0.212851,-0.110069 0.255826,-0.192548 0.304875,-0.585122 0.0314,-0.251345 0.04373,-0.979113 0.02739,-1.61726 -0.02815,-1.099582 -0.04016,-1.168731 -0.229587,-1.322053 -0.297229,-0.240578 -0.558267,-0.200947 -0.883727,0.134168 -0.481988,0.496288 -0.748754,1.710966 -0.613502,2.793488 0.05447,0.435968 0.08659,0.49655 0.307467,0.579922 0.135653,0.0512 0.246641,0.141894 0.246641,0.201535 0,0.136 -2.329812,0.158371 -2.413369,0.02317 z m 6.223369,-0.04173 c 0,-0.07006 0.07504,-0.127 0.167382,-0.127 0.09206,0 0.230228,-0.09592 0.30704,-0.213147 0.116011,-0.177054 0.141431,-0.479316 0.150119,-1.785014 l 0.01046,-1.571867 -0.227149,-0.195703 c -0.124932,-0.107636 -0.277332,-0.213564 -0.338667,-0.235395 -0.263203,-0.09368 0.07763,-0.184766 0.811477,-0.216862 l 0.789421,-0.03453 0.09629,0.276225 c 0.05296,0.151923 0.09629,0.36932 0.09629,0.483103 0,0.195791 0.02305,0.186151 0.430161,-0.179873 0.636423,-0.572199 1.248545,-0.700759 1.857467,-0.39011 0.572523,0.292079 0.631095,0.502655 0.605884,2.178258 -0.02343,1.557138 0.01478,1.751321 0.371302,1.886869 0.470671,0.178949 0.186809,0.252043 -0.978814,0.252043 -1.214927,0 -1.396192,-0.05595 -0.942095,-0.290769 0.133781,-0.06918 0.266611,-0.213034 0.295177,-0.319674 0.08828,-0.329573 0.05947,-2.75147 -0.03571,-3.001823 -0.182237,-0.479318 -0.562527,-0.496499 -1.013247,-0.04578 -0.42848,0.42848 -0.614503,1.071628 -0.617245,2.134044 -0.0025,0.981101 0.03931,1.120851 0.373314,1.246925 0.504565,0.190451 0.18301,0.277076 -1.028522,0.277076 -0.992744,0 -1.180337,-0.02018 -1.180337,-0.127 z M 18.924195,21.267679 c 0,-0.164202 0.05644,-0.169334 1.862666,-0.169334 1.806222,0 1.862667,0.0051 1.862667,0.169334 0,0.164202 -0.05645,0.169333 -1.862667,0.169333 -1.806222,0 -1.862666,-0.0051 -1.862666,-0.169333 z M 4.1921953,21.183012 c 0,-0.163826 0.056444,-0.169333 1.7356667,-0.169333 1.679222,0 1.735666,0.0055 1.735666,0.169333 0,0.163827 -0.05644,0.169333 -1.735666,0.169333 -1.6792223,0 -1.7356667,-0.0055 -1.7356667,-0.169333 z m 10.8522917,0.0294 c 0.01922,-0.09826 0.254281,-0.199868 0.789374,-0.341215 0.4191,-0.110706 1.168199,-0.310356 1.664664,-0.443666 0.83838,-0.22512 0.905447,-0.231739 0.941743,-0.09294 0.03369,0.128846 -0.185401,0.209262 -1.590024,0.583596 -0.896006,0.238787 -1.675009,0.434158 -1.731117,0.434158 -0.05611,0 -0.0897,-0.06297 -0.07464,-0.139929 z m 7.774374,-0.452733 c 0,-0.163689 0.05645,-0.169334 1.693333,-0.169334 1.636889,0 1.693334,0.0056 1.693334,0.169334 0,0.163689 -0.05645,0.169333 -1.693334,0.169333 -1.636888,0 -1.693333,-0.0056 -1.693333,-0.169333 z m -7.919402,-0.02642 c -0.09396,-0.262108 -2.663931,-9.92984 -2.663931,-10.021179 0,-0.05744 0.123825,-0.138355 0.275167,-0.179808 1.636834,-0.44834 3.03483,-0.7994824 3.064567,-0.7697444 0.04397,0.04397 2.692056,9.8877144 2.704964,10.0551874 0.0093,0.120527 -0.111564,0.159629 -2.218206,0.717698 -0.804751,0.213186 -1.136805,0.269696 -1.162561,0.197846 z m 4.024736,-5.265243 v -5.376334 h 1.862666 1.862667 v 5.376334 5.376333 H 20.786861 18.924195 Z M 4.1921953,12.375925 V 3.9921708 l 1.7144997,0.02292 1.7145,0.02292 0.02158,8.3608342 0.02158,8.360834 H 5.928275 4.1921953 Z m 3.6406667,7.96042 c 0,-0.164316 0.05644,-0.169333 1.905,-0.169333 1.848555,0 1.905,0.005 1.905,0.169333 0,0.164316 -0.05645,0.169334 -1.905,0.169334 -1.848556,0 -1.905,-0.005 -1.905,-0.169334 z M 22.818861,14.663678 V 8.9910108 h 1.693333 1.693334 v 5.6726672 5.672667 H 24.512194 22.818861 Z M 7.832862,14.706008 V 9.4990066 h 1.905 1.905 v 5.2070014 5.207 h -1.905 -1.905 z m 32.166819,2.419513 c -0.311003,-0.311003 -0.325367,-0.659752 -0.03986,-0.967817 0.433676,-0.467944 1.235113,-0.161053 1.229017,0.470622 -0.003,0.310784 -0.117819,0.49914 -0.393908,0.646186 -0.298164,0.158803 -0.531091,0.115163 -0.795246,-0.148991 z M 12.066644,10.197512 c 3.68e-4,-0.121132 0.305023,-0.2285284 1.66969,-0.5885914 1.230985,-0.3247908 1.685636,-0.4138928 1.731691,-0.3393738 0.03435,0.05558 0.03546,0.126625 0.0025,0.157885 -0.0561,0.05316 -3.203932,0.9182462 -3.341287,0.9182462 -0.03466,0 -0.06282,-0.06668 -0.06257,-0.148166 z m 6.857551,-0.5291674 c 0,-0.164202 0.05644,-0.169334 1.862666,-0.169334 1.806222,0 1.862667,0.0051 1.862667,0.169334 0,0.164202 -0.05645,0.169333 -1.862667,0.169333 -1.806222,0 -1.862666,-0.0051 -1.862666,-0.169333 z M 11.796082,9.1961848 c -0.09601,-0.401251 -0.106453,-0.566165 -0.03739,-0.590252 0.562112,-0.196048 3.241341,-0.863 3.284718,-0.817678 0.07088,0.07406 0.329005,1.057427 0.288259,1.098173 -0.04968,0.04968 -3.129197,0.8649238 -3.270414,0.8657818 -0.0928,5.64e-4 -0.171465,-0.164386 -0.265171,-0.5560248 z m 7.128113,-0.79784 v -0.846667 h 1.862666 1.862667 v 0.846667 0.846666 h -1.862667 -1.862666 z m -11.091333,0.635 c 0,-0.109126 0.268111,-0.127 1.905,-0.127 1.636888,0 1.905,0.01787 1.905,0.127 0,0.109126 -0.268112,0.127 -1.905,0.127 -1.636889,0 -1.905,-0.01787 -1.905,-0.127 z m 14.985999,-0.465667 c 0,-0.163689 0.05645,-0.169333 1.693333,-0.169333 1.636889,0 1.693334,0.0056 1.693334,0.169333 0,0.163689 -0.05645,0.169333 -1.693334,0.169333 -1.636888,0 -1.693333,-0.0056 -1.693333,-0.169333 z m -14.985999,-0.889 v -0.973667 h 1.905 1.905 v 0.973667 0.973667 h -1.905 -1.905 z m 14.985999,-0.423333 v -0.889001 h 1.693333 1.693334 v 0.889001 0.889 H 24.512194 22.818861 Z M 4.1921953,3.6146768 c 0,-0.108758 0.2492963,-0.127 1.7356667,-0.127 1.48637,0 1.735666,0.01824 1.735666,0.127 0,0.108759 -0.249296,0.127 -1.735666,0.127 -1.4863704,0 -1.7356667,-0.01824 -1.7356667,-0.127 z m 0,-1.185333 V 1.7096768 H 5.927862 7.663528 v 0.719667 0.719667 H 5.927862 4.1921953 Z"
             id="path4"
             sodipodi:nodetypes="ccccccccssscccccssssssscsssccccccccccccssssscsssssscsssssscsssscccccsssccsscccssscccssccsssscsssssssssssssssssssssscsssssssssscssssscsssssssssscssssssssscccsssssssssscssssssscssssscccsscssssssssssssccssssssssssssssssssssssscsssssssssssssssssssssscssscssssssssssscssssssssssssssssssssssssssssssssssccccccccccccccccccsssssccccccccccccccccccsssssscsscsccsssssssssssscccccccccssssssssssccccccccccccccccccsssssccccccccc" /></g></g></clipPath></defs><g
     inkscape:label="Ebene 1"
     inkscape:groupmode="layer"
     id="layer1"
     transform="translate(-1.228862,-1.7096767)"><g
       id="g71"
       inkscape:label="books"
       style="fill:#eeeeee;fill-opacity:1"><path
         d="m 18.853626,22.140988 c -0.01993,-0.006 -0.0453,-0.0022 -0.07751,0.0078 -0.08149,0.02519 -0.791581,0.216687 -1.577681,0.425814 -0.7861,0.209127 -1.449394,0.400879 -1.474329,0.425814 -0.02493,0.02493 0.684638,0.04547 1.577165,0.04547 h 1.623157 v -0.471289 c 0,-0.204965 -0.0049,-0.321759 -0.02584,-0.381889 -0.01047,-0.03007 -0.02503,-0.04567 -0.04496,-0.05168 z"
         id="path51"
         style="fill:#eeeeee;fill-opacity:1" /><path
         d="m 20.786841,21.098157 c -0.903112,0 -1.368799,0.0014 -1.608687,0.02325 -0.119944,0.0109 -0.183528,0.02707 -0.217041,0.05064 -0.03351,0.02357 -0.03669,0.05455 -0.03669,0.0956 0,0.04106 0.0032,0.07203 0.03669,0.0956 0.03351,0.02357 0.0971,0.03974 0.217041,0.05064 0.239889,0.0218 0.705577,0.02325 1.608687,0.02325 0.903108,0 1.368798,-0.0014 1.608688,-0.02325 0.119944,-0.0109 0.183526,-0.02707 0.217041,-0.05064 0.03351,-0.02357 0.03721,-0.05455 0.03721,-0.0956 0,-0.04106 -0.0037,-0.07203 -0.03721,-0.0956 -0.03351,-0.02357 -0.0971,-0.03974 -0.217041,-0.05064 -0.239889,-0.02181 -0.705578,-0.02325 -1.608688,-0.02325 z"
         id="path50"
         style="fill:#eeeeee;fill-opacity:1" /><path
         d="m 5.9278,21.013925 c -0.8396105,0 -1.2735694,8.82e-4 -1.497583,0.02274 -0.1120068,0.01093 -0.171559,0.02709 -0.2030884,0.05064 -0.031529,0.02355 -0.03514,0.05465 -0.03514,0.0956 0,0.04096 0.00361,0.07205 0.03514,0.0956 0.031529,0.02356 0.091081,0.03972 0.2030884,0.05064 0.2240136,0.02185 0.6579727,0.02325 1.497583,0.02325 0.8396121,0 1.27357,-0.0014 1.497583,-0.02325 0.1120065,-0.01093 0.1715593,-0.02709 0.2030884,-0.05064 0.031529,-0.02355 0.03514,-0.05464 0.03514,-0.0956 0,-0.04096 -0.00361,-0.07205 -0.03514,-0.0956 -0.031529,-0.02355 -0.091082,-0.03972 -0.2030884,-0.05064 -0.2240135,-0.02185 -0.6579729,-0.02274 -1.497583,-0.02274 z"
         id="path49"
         style="fill:#eeeeee;fill-opacity:1" /><path
         d="m 7.83311,20.759677 v 1.09554 c 0,0.319558 -0.00929,0.599241 -0.024288,0.802535 -0.014994,0.203294 -0.035766,0.330455 -0.060461,0.345715 -0.013483,0.0083 -0.025708,-9.44e-4 -0.036174,-0.02635 C 7.701721,22.951707 7.693045,22.909857 7.685832,22.852577 7.671406,22.738021 7.663611,22.561936 7.663611,22.331162 v -0.72502 H 5.9278 4.1919886 v 0.719852 0.719853 H 2.7104253 1.228862 v 0.465605 0.465604 h 14.054439 14.054956 v -0.463537 -0.464055 l -1.545125,-0.02325 -1.545125,-0.02274 -0.02429,-0.910538 -0.02377,-0.910022 h -1.690853 -1.690336 v 0.931209 c 0,0.282222 -0.008,0.5152 -0.02274,0.677478 -0.01475,0.162278 -0.03636,0.254248 -0.06201,0.254248 -0.0247,0 -0.04547,-0.07074 -0.06046,-0.190686 -0.01499,-0.119944 -0.02377,-0.289236 -0.02377,-0.486792 v -0.677478 h -1.856734 c -0.849833,0 -1.314542,0.0032 -1.570447,0.02325 -0.127953,0.01004 -0.203539,0.02419 -0.249081,0.04444 -0.04554,0.02025 -0.06104,0.0467 -0.06821,0.08061 -0.0043,0.02037 -0.01275,0.02276 -0.02429,0.0093 -0.01153,-0.01346 -0.02616,-0.04255 -0.04289,-0.08475 -0.03347,-0.0844 -0.07514,-0.221353 -0.117305,-0.390157 C 18.636501,21.035978 18.5473,20.75967 18.5229,20.75967 c -0.02439,0 -0.782213,0.196819 -1.684135,0.437182 -0.453868,0.120957 -0.789014,0.207308 -1.033012,0.280603 -0.121999,0.03665 -0.22139,0.07033 -0.301274,0.102836 -0.07988,0.03251 -0.140331,0.06412 -0.185001,0.09767 -0.04467,0.03355 -0.07356,0.06874 -0.08992,0.10852 -0.01636,0.03978 -0.02004,0.0842 -0.01499,0.135393 0.01011,0.102384 0.05624,0.232728 0.110587,0.411861 0.05837,0.192399 0.110851,0.333328 0.123507,0.436149 0.0063,0.05141 0.0025,0.09292 -0.0155,0.127124 -0.01804,0.0342 -0.05025,0.06069 -0.101286,0.08113 -0.05104,0.02045 -0.120761,0.03481 -0.213424,0.04496 -0.09266,0.01015 -0.208485,0.01633 -0.351399,0.01964 -0.28583,0.0066 -0.680442,0.0031 -1.219047,0.0031 h -1.90531 V 21.902759 20.759677 H 9.7379033 Z m 11.020516,1.381311 c 0.01993,0.006 0.03449,0.02161 0.04496,0.05168 0.02094,0.06013 0.02584,0.176924 0.02584,0.381889 v 0.471289 h -1.623157 c -0.892527,0 -1.602095,-0.02055 -1.577165,-0.04547 0.02494,-0.02493 0.688229,-0.216687 1.474329,-0.425814 0.7861,-0.209127 1.496191,-0.400624 1.577681,-0.425814 0.03222,-0.01 0.05758,-0.01375 0.07751,-0.0078 z"
         id="path48"
         style="fill:#eeeeee;fill-opacity:1" /><path
         d="m 24.512195,20.590178 c -0.81844,0 -1.241653,0.0014 -1.460376,0.02325 -0.109361,0.01094 -0.167569,0.02709 -0.198437,0.05064 -0.03087,0.02355 -0.03462,0.05468 -0.03462,0.0956 0,0.04093 0.0038,0.07205 0.03462,0.0956 0.03087,0.02355 0.08908,0.03971 0.198437,0.05064 0.218722,0.02187 0.641933,0.02325 1.460376,0.02325 0.818442,0 1.241654,-0.0014 1.460376,-0.02325 0.109362,-0.01094 0.167569,-0.02709 0.198438,-0.05064 0.03087,-0.02355 0.03462,-0.05468 0.03462,-0.0956 0,-0.04093 -0.0038,-0.07205 -0.03462,-0.0956 -0.03087,-0.02355 -0.08908,-0.03971 -0.198438,-0.05064 -0.218722,-0.02187 -0.641932,-0.02325 -1.460376,-0.02325 z"
         id="path47"
         style="fill:#eeeeee;fill-opacity:1" /><path
         d="m 24.512195,20.590178 c 0.818444,0 1.241654,0.0014 1.460376,0.02325 0.109361,0.01093 0.16757,0.02709 0.198438,0.05064 0.03087,0.02355 0.03462,0.05467 0.03462,0.0956 0,0.04092 -0.0038,0.07205 -0.03462,0.0956 -0.03087,0.02355 -0.08908,0.03971 -0.198438,0.05064 -0.218722,0.02187 -0.641934,0.02325 -1.460376,0.02325 -0.818443,0 -1.241654,-0.0014 -1.460376,-0.02325 -0.109361,-0.01093 -0.167569,-0.02709 -0.198437,-0.05064 -0.03087,-0.02355 -0.03462,-0.05467 -0.03462,-0.0956 0,-0.04092 0.0038,-0.07205 0.03462,-0.0956 0.03087,-0.02355 0.08908,-0.03971 0.198437,-0.05064 0.218723,-0.02187 0.641936,-0.02325 1.460376,-0.02325 z"
         id="path46"
         style="fill:#eeeeee;fill-opacity:1" /><path
         d="m 18.270199,20.244463 c -0.126101,0.01244 -0.352339,0.07037 -0.771529,0.182934 -0.496465,0.13331 -1.245915,0.333195 -1.665015,0.443901 -0.267546,0.07067 -0.460023,0.131199 -0.588078,0.186552 -0.06403,0.02768 -0.111593,0.05403 -0.144694,0.07958 -0.0331,0.02555 -0.05152,0.05037 -0.05633,0.07493 -0.0075,0.03848 -0.0032,0.07334 0.01033,0.0987 0.01353,0.02536 0.03602,0.04134 0.06408,0.04134 0.05611,0 0.835156,-0.195295 1.731161,-0.434082 0.702311,-0.187166 1.108146,-0.300954 1.334285,-0.383956 0.11307,-0.0415 0.181359,-0.07546 0.219108,-0.10697 0.03775,-0.03151 0.04511,-0.06081 0.03669,-0.09302 -0.0091,-0.0347 -0.01995,-0.06007 -0.04444,-0.07545 -0.02449,-0.01538 -0.06252,-0.02069 -0.125574,-0.01447 z"
         id="path44"
         style="fill:#eeeeee;fill-opacity:1" /><path
         d="m 18.270199,20.244463 c 0.06305,-0.0062 0.101082,-9.11e-4 0.125574,0.01447 0.02449,0.01538 0.03537,0.04075 0.04444,0.07545 0.0084,0.03221 0.0011,0.06151 -0.03669,0.09302 -0.03775,0.03151 -0.106038,0.06547 -0.219108,0.10697 -0.226139,0.083 -0.631974,0.19679 -1.334285,0.383956 -0.896005,0.238787 -1.675053,0.434082 -1.731161,0.434082 -0.02805,0 -0.05055,-0.01598 -0.06408,-0.04134 -0.01353,-0.02536 -0.01787,-0.06022 -0.01033,-0.0987 0.0048,-0.02456 0.02323,-0.04938 0.05633,-0.07493 0.0331,-0.02555 0.08067,-0.0519 0.144694,-0.07958 0.128055,-0.05535 0.320532,-0.115879 0.588078,-0.186552 0.4191,-0.110706 1.16855,-0.310591 1.665015,-0.443901 0.41919,-0.11256 0.645428,-0.170489 0.771529,-0.182934 z"
         id="path43"
         style="fill:#eeeeee;fill-opacity:1" /><path
         d="m 9.7379033,20.166948 c -0.924279,0 -1.4007146,0.0015 -1.6458943,0.02325 -0.1225899,0.0109 -0.187517,0.02655 -0.2216919,0.05013 -0.034175,0.02358 -0.037207,0.05504 -0.037207,0.09612 0,0.04108 0.00303,0.07202 0.037207,0.0956 0.034175,0.02358 0.099102,0.03975 0.2216919,0.05064 0.2451802,0.02179 0.7216173,0.02274 1.6458943,0.02274 0.9242737,0 1.4007137,-9.44e-4 1.6458947,-0.02274 0.12259,-0.0109 0.186999,-0.02707 0.221175,-0.05064 0.03418,-0.02358 0.03772,-0.05452 0.03772,-0.0956 0,-0.04108 -0.0035,-0.07254 -0.03772,-0.09612 -0.03418,-0.02358 -0.09858,-0.03923 -0.221175,-0.05013 -0.245181,-0.02179 -0.721618,-0.02325 -1.6458947,-0.02325 z"
         id="path42"
         style="fill:#eeeeee;fill-opacity:1" /><path
         d="m 9.7379033,20.166948 c -0.462139,0 -0.8121626,5.29e-4 -1.0774536,0.0036 -0.2652909,0.0031 -0.445851,0.0087 -0.5684407,0.01964 -0.061295,0.0054 -0.1083499,0.01193 -0.1441773,0.02015 -0.035827,0.0082 -0.060427,0.01818 -0.077515,0.02997 -0.017089,0.01179 -0.026493,0.02539 -0.031523,0.04134 -0.00503,0.01595 -0.00568,0.03424 -0.00568,0.05478 0,0.02054 6.546e-4,0.03844 0.00568,0.05426 0.00503,0.01582 0.014435,0.02955 0.031523,0.04134 0.017088,0.01178 0.041687,0.02162 0.077515,0.02997 0.035827,0.0084 0.082882,0.01522 0.1441773,0.02067 0.12259,0.0109 0.3031496,0.01668 0.5684407,0.01964 0.2652912,0.003 0.6153156,0.0031 1.0774536,0.0031 0.4621367,0 0.8121617,-1.4e-4 1.0774537,-0.0031 0.265292,-0.003 0.44585,-0.0087 0.568441,-0.01964 0.0613,-0.0054 0.107963,-0.01232 0.14366,-0.02067 0.0357,-0.0084 0.06043,-0.01818 0.07752,-0.02997 0.01711,-0.01179 0.02637,-0.02552 0.03152,-0.04134 0.0052,-0.01582 0.0062,-0.03372 0.0062,-0.05426 0,-0.02054 -10e-4,-0.03883 -0.0062,-0.05478 -0.0052,-0.01595 -0.01443,-0.02955 -0.03152,-0.04134 -0.01709,-0.01179 -0.04182,-0.02175 -0.07752,-0.02997 -0.0357,-0.0082 -0.08236,-0.0147 -0.14366,-0.02015 -0.122591,-0.01087 -0.30315,-0.01654 -0.568441,-0.01964 -0.265291,-0.0031 -0.615316,-0.0036 -1.0774537,-0.0036 z"
         id="path67"
         style="fill:#eeeeee;fill-opacity:1" /><path
         d="m 18.924423,10.091594 v 5.376416 5.376416 h 1.862418 1.862936 V 15.46801 10.091594 h -1.862936 z"
         id="path25"
         style="fill:#eeeeee;fill-opacity:1" /><path
         d="m 15.575273,9.7624151 c -0.01487,-0.014869 -0.371839,0.065561 -0.929659,0.2056722 -0.55782,0.1401107 -1.316337,0.3401367 -2.134753,0.5643067 -0.07567,0.02073 -0.14443,0.05113 -0.194304,0.08372 -0.04987,0.03259 -0.08113,0.0674 -0.08113,0.09612 0,0.09134 2.56996,9.758986 2.66392,10.021094 0.0064,0.01796 0.03226,0.02798 0.07958,0.02945 0.04733,0.0015 0.116393,-0.0058 0.209806,-0.0217 0.186827,-0.03179 0.470957,-0.09908 0.873332,-0.205672 1.05332,-0.279034 1.610343,-0.428366 1.902726,-0.522966 0.146192,-0.0473 0.226295,-0.08074 0.269235,-0.11007 0.04294,-0.02933 0.04832,-0.05462 0.04599,-0.08475 -0.0065,-0.08374 -0.671356,-2.586228 -1.340487,-5.073592 C 16.2704,12.256659 15.597258,9.7844001 15.575273,9.7624151 Z"
         id="path24"
         style="fill:#eeeeee;fill-opacity:1" /><path
         d="m 20.786841,9.4988653 c -0.903112,0 -1.368799,0.00145 -1.608687,0.023254 -0.119944,0.010904 -0.183528,0.027071 -0.217041,0.050643 -0.03351,0.023572 -0.03669,0.054551 -0.03669,0.095601 0,0.041058 0.0032,0.072028 0.03669,0.095601 0.03351,0.023573 0.0971,0.039741 0.217041,0.050643 0.239889,0.021804 0.705577,0.023254 1.608687,0.023254 0.903108,0 1.368798,-0.00145 1.608688,-0.023254 0.119944,-0.010904 0.183526,-0.027071 0.217041,-0.050643 0.03351,-0.023572 0.03721,-0.054551 0.03721,-0.095601 0,-0.041058 -0.0037,-0.072028 -0.03721,-0.095601 -0.03351,-0.023574 -0.0971,-0.039741 -0.217041,-0.050643 -0.239889,-0.021804 -0.705578,-0.023254 -1.608688,-0.023254 z"
         id="path23"
         style="fill:#eeeeee;fill-opacity:1" /><path
         d="m 7.83311,9.4988653 v 5.2069177 5.207434 H 9.7379033 11.642697 V 14.705783 9.4988653 H 9.7379033 Z"
         id="path22"
         style="fill:#eeeeee;fill-opacity:1" /><path
         d="m 7.83311,9.4988653 h 1.9047933 1.9047937 v 5.2069177 5.207434 H 9.7379033 7.83311 v -5.207434 z"
         id="path21"
         style="fill:#eeeeee;fill-opacity:1" /><path
         d="m 15.350997,9.2456508 c -0.06833,0.00295 -0.167728,0.017145 -0.304374,0.043925 -0.273292,0.053559 -0.695022,0.1569651 -1.310514,0.3193603 -0.682333,0.1800314 -1.099378,0.2969575 -1.346171,0.3839559 -0.123397,0.043499 -0.204312,0.079409 -0.254248,0.112138 -0.04994,0.03273 -0.06916,0.06222 -0.06925,0.0925 -1.25e-4,0.04074 0.0073,0.07753 0.0186,0.104386 0.01134,0.02686 0.02711,0.04392 0.04444,0.04392 0.06868,0 0.889532,-0.216333 1.700671,-0.4392496 0.811139,-0.2229163 1.61216,-0.4524606 1.64021,-0.4790405 0.01648,-0.01563 0.02474,-0.041147 0.02429,-0.069763 -4.51e-4,-0.028616 -0.0097,-0.060577 -0.02687,-0.088367 -0.01151,-0.01863 -0.04845,-0.02672 -0.116789,-0.023771 z"
         id="path20"
         style="fill:#eeeeee;fill-opacity:1" /><path
         d="m 15.350997,9.2456508 c 0.06834,-0.00295 0.105275,0.00514 0.116789,0.023771 0.01717,0.02779 0.02642,0.05975 0.02687,0.088367 4.51e-4,0.028616 -0.0078,0.054133 -0.02429,0.069763 -0.02805,0.02658 -0.829071,0.2561242 -1.64021,0.4790405 -0.811139,0.2229167 -1.631994,0.4392497 -1.700671,0.4392497 -0.01733,0 -0.0331,-0.01707 -0.04444,-0.04392 -0.01134,-0.02686 -0.01873,-0.06364 -0.0186,-0.104386 9.2e-5,-0.03028 0.01931,-0.05977 0.06925,-0.0925 0.04994,-0.03273 0.130851,-0.06864 0.254248,-0.1121381 0.246793,-0.086998 0.663838,-0.2039245 1.346171,-0.3839559 0.615492,-0.1623952 1.037222,-0.2658009 1.310514,-0.3193603 0.136646,-0.02678 0.23604,-0.040976 0.304374,-0.043925 z m 5.435844,0.2532145 c 0.90311,0 1.368799,0.00145 1.608688,0.023254 0.119944,0.010902 0.183527,0.027069 0.217041,0.050643 0.03351,0.023573 0.03721,0.054543 0.03721,0.095601 0,0.04105 -0.0037,0.072029 -0.03721,0.095601 -0.03352,0.023572 -0.0971,0.039739 -0.217041,0.050643 -0.23989,0.021808 -0.70558,0.023254 -1.608688,0.023254 -0.90311,0 -1.368798,-0.00145 -1.608687,-0.023254 -0.119944,-0.010902 -0.183527,-0.027069 -0.217041,-0.050643 -0.03351,-0.023573 -0.03669,-0.054543 -0.03669,-0.095601 0,-0.04105 0.0032,-0.072029 0.03669,-0.095601 0.03351,-0.023572 0.0971,-0.039739 0.217041,-0.050643 0.239888,-0.021808 0.705575,-0.023254 1.608687,-0.023254 z m -5.211568,0.2635498 c 0.02199,0.021985 0.695127,2.4942439 1.364258,4.9816079 0.669131,2.487364 1.334033,4.989856 1.340487,5.073592 0.0023,0.03013 -0.0031,0.05541 -0.04599,0.08475 -0.04294,0.02933 -0.123043,0.06277 -0.269235,0.11007 -0.292383,0.0946 -0.849406,0.243932 -1.902726,0.522966 -0.402375,0.106593 -0.686505,0.173878 -0.873332,0.205672 -0.09341,0.0159 -0.16248,0.02318 -0.209806,0.0217 -0.04733,-0.0015 -0.07314,-0.01149 -0.07958,-0.02945 -0.09396,-0.262108 -2.66392,-9.929755 -2.66392,-10.021094 0,-0.02872 0.03126,-0.06353 0.08113,-0.09612 0.04987,-0.03259 0.118633,-0.06299 0.194304,-0.08372 0.818416,-0.22417 1.576933,-0.424196 2.134753,-0.5643067 0.55782,-0.1401107 0.914791,-0.2205411 0.929659,-0.2056722 z m 3.34915,0.3291789 h 1.862418 1.862936 v 5.376416 5.376416 H 20.786841 18.924423 V 15.46801 Z"
         id="path19"
         style="fill:#eeeeee;fill-opacity:1" /><path
         d="m 22.818759,8.990886 v 5.673039 5.672522 h 1.693436 1.693437 V 14.663925 8.990886 h -1.693437 z"
         id="path18"
         style="fill:#eeeeee;fill-opacity:1" /><path
         d="m 22.818759,8.990886 v 5.673039 5.672522 h 1.693436 1.693437 V 14.663925 8.990886 h -1.693437 z"
         id="path52"
         style="fill:#eeeeee;fill-opacity:1" /><path
         d="m 9.7379033,8.9061367 c -0.8184436,0 -1.294674,0.00463 -1.5663126,0.022738 -0.1358193,0.00905 -0.2205895,0.021736 -0.2713013,0.038757 -0.050712,0.017021 -0.067179,0.038348 -0.067179,0.065629 0,0.027283 0.016468,0.049124 0.067179,0.066146 0.050712,0.017022 0.135482,0.029186 0.2713013,0.038241 0.2716386,0.018109 0.747869,0.022738 1.5663126,0.022738 0.8184437,0 1.2946737,-0.00463 1.5663127,-0.022738 0.135819,-0.00905 0.220589,-0.021219 0.271301,-0.038241 0.05071,-0.017022 0.06718,-0.038864 0.06718,-0.066146 0,-0.027283 -0.01647,-0.048607 -0.06718,-0.065629 -0.05071,-0.017022 -0.135482,-0.029703 -0.271301,-0.038757 -0.271639,-0.018109 -0.747869,-0.022738 -1.5663127,-0.022738 z"
         id="path16"
         style="fill:#eeeeee;fill-opacity:1" /><path
         d="m 9.7379033,8.9061367 c 0.8184437,0 1.2946737,0.00463 1.5663127,0.022738 0.135819,0.00905 0.220589,0.021736 0.271301,0.038757 0.05071,0.017022 0.06718,0.038347 0.06718,0.065629 0,0.027282 -0.01647,0.049124 -0.06718,0.066146 -0.05071,0.017022 -0.135482,0.029186 -0.271301,0.038241 -0.271639,0.018109 -0.747869,0.022738 -1.5663127,0.022738 -0.8184436,0 -1.294674,-0.00463 -1.5663126,-0.022738 C 8.0357714,9.1285927 7.9510012,9.1164282 7.9002894,9.0994065 7.8495777,9.0823848 7.83311,9.0605432 7.83311,9.0332607 c 0,-0.027281 0.016468,-0.048608 0.067179,-0.065629 0.050712,-0.017022 0.135482,-0.029703 0.2713013,-0.038757 0.2716386,-0.018109 0.747869,-0.022738 1.566313,-0.022738 z"
         id="path15"
         style="fill:#eeeeee;fill-opacity:1" /><path
         d="m 24.512195,8.3981573 c -0.81844,0 -1.241653,0.00138 -1.460376,0.023254 -0.109361,0.010936 -0.167569,0.027095 -0.198437,0.050643 -0.03087,0.023548 -0.03462,0.054679 -0.03462,0.095601 0,0.040933 0.0038,0.072052 0.03462,0.095601 0.03087,0.02355 0.08908,0.03971 0.198437,0.050643 0.218722,0.021867 0.641933,0.023254 1.460376,0.023254 0.818442,0 1.241654,-0.00138 1.460376,-0.023254 0.109362,-0.010936 0.167569,-0.027095 0.198438,-0.050643 0.03087,-0.023548 0.03462,-0.054679 0.03462,-0.095601 0,-0.040933 -0.0038,-0.072051 -0.03462,-0.095601 -0.03087,-0.02355 -0.08908,-0.03971 -0.198438,-0.050643 -0.218722,-0.021867 -0.641932,-0.023254 -1.460376,-0.023254 z"
         id="path14"
         style="fill:#eeeeee;fill-opacity:1" /><path
         d="m 24.512195,8.3981573 c 0.818444,0 1.241654,0.00139 1.460376,0.023254 0.109361,0.010933 0.16757,0.027093 0.198438,0.050643 0.03087,0.02355 0.03462,0.054668 0.03462,0.095601 0,0.040922 -0.0038,0.072054 -0.03462,0.095601 -0.03087,0.023548 -0.08908,0.039707 -0.198438,0.050643 -0.218722,0.021872 -0.641934,0.023254 -1.460376,0.023254 -0.818443,0 -1.241654,-0.00139 -1.460376,-0.023254 -0.109361,-0.010933 -0.167569,-0.027093 -0.198437,-0.050643 -0.03087,-0.02355 -0.03462,-0.054668 -0.03462,-0.095601 0,-0.040922 0.0038,-0.072053 0.03462,-0.095601 0.03087,-0.023548 0.08908,-0.039707 0.198437,-0.050643 0.218723,-0.021872 0.641936,-0.023254 1.460376,-0.023254 z"
         id="path13"
         style="fill:#eeeeee;fill-opacity:1" /><path
         d="m 15.043523,7.7883754 c -0.02169,-0.022661 -0.702481,0.1327483 -1.447974,0.3183269 -0.745493,0.1855785 -1.556041,0.4011704 -1.837097,0.4991943 -0.01727,0.00602 -0.02946,0.020875 -0.03669,0.045992 -0.0072,0.025118 -0.0092,0.060289 -0.0062,0.107487 0.006,0.094396 0.03261,0.2360405 0.08062,0.4366658 0.04685,0.1958193 0.08983,0.3351753 0.132808,0.4252971 0.02149,0.045061 0.04322,0.077715 0.06511,0.099219 0.02189,0.021504 0.04398,0.031664 0.06718,0.031523 0.07061,-4.29e-4 0.875925,-0.204317 1.669665,-0.414445 0.793741,-0.210128 1.576096,-0.4262953 1.600936,-0.4511353 0.02037,-0.020373 -0.03402,-0.2767259 -0.102319,-0.5369181 C 15.161262,8.0893898 15.078967,7.825406 15.043527,7.788376 Z"
         id="path12"
         style="fill:#eeeeee;fill-opacity:1" /><path
         d="m 15.043523,7.7883754 c 0.03544,0.03703 0.117737,0.3010138 0.186035,0.5612061 0.0683,0.2601922 0.122692,0.5165451 0.102319,0.5369181 -0.02484,0.02484 -0.807195,0.2410073 -1.600936,0.4511353 -0.79374,0.210128 -1.599057,0.414016 -1.669665,0.414445 -0.0232,1.41e-4 -0.04529,-0.010019 -0.06718,-0.031523 -0.02189,-0.021504 -0.04362,-0.054158 -0.06511,-0.099219 -0.04298,-0.090122 -0.08596,-0.2294778 -0.132808,-0.4252971 -0.04801,-0.2006253 -0.07464,-0.3422702 -0.08062,-0.4366658 -0.003,-0.047198 -10e-4,-0.08237 0.0062,-0.107487 0.0072,-0.025117 0.01942,-0.03997 0.03669,-0.045992 0.281056,-0.098024 1.091604,-0.3136158 1.837097,-0.4991943 0.745493,-0.1855786 1.426285,-0.3409878 1.447974,-0.3183269 z"
         id="path11"
         style="fill:#eeeeee;fill-opacity:1" /><path
         d="m 18.924423,7.5516974 v 0.8464599 0.8469768 h 1.862418 1.862936 V 8.3981573 7.5516974 h -1.862936 z"
         id="path10"
         style="fill:#eeeeee;fill-opacity:1" /><path
         d="m 7.83311,6.7052374 v 0.973584 0.973584 H 9.7379033 11.642697 V 7.6788214 6.7052374 H 9.7379033 Z"
         id="path9"
         style="fill:#eeeeee;fill-opacity:1" /><path
         d="M 22.818759,6.36624 V 7.2555914 8.144426 h 1.693436 1.693437 V 7.2555914 6.36624 h -1.693437 z"
         id="path8"
         style="fill:#eeeeee;fill-opacity:1" /><path
         d="m 4.1919886,3.9922247 v 8.3834673 8.383985 h 1.7363282 1.7358113 l -0.021187,-8.36073 -0.021704,-8.3607303 -1.714624,-0.023254 z"
         id="path7"
         style="fill:#eeeeee;fill-opacity:1" /><path
         d="m 5.9278,3.4878627 c -0.7431845,0 -1.1771159,0.00458 -1.425236,0.022738 -0.1240601,0.00908 -0.2014509,0.021236 -0.2480469,0.038241 -0.046596,0.017004 -0.062528,0.03844 -0.062528,0.065629 0,0.02719 0.015932,0.049142 0.062528,0.066146 0.046596,0.017004 0.1239868,0.029163 0.2480469,0.038241 0.2481201,0.018155 0.6820515,0.022738 1.425236,0.022738 0.7431842,0 1.177116,-0.00458 1.425236,-0.022738 0.12406,-0.00908 0.2019676,-0.021236 0.2485636,-0.038241 0.046596,-0.017004 0.062012,-0.038956 0.062012,-0.066146 0,-0.02719 -0.015416,-0.048625 -0.062012,-0.065629 C 7.5550036,3.5318366 7.477096,3.5196779 7.353036,3.5106004 7.104916,3.4924454 6.6709842,3.4878627 5.9278,3.4878627 Z"
         id="path6"
         style="fill:#eeeeee;fill-opacity:1" /><path
         d="M 4.1919886,1.7096767 V 2.4295294 3.1488653 H 5.9278 7.6636113 V 2.4295294 1.7096767 H 5.9278 Z"
         id="path5"
         style="fill:#eeeeee;fill-opacity:1" /></g><g
       id="text1"
       style="font-size:9.87778px;line-height:1;letter-spacing:1.02923px;stroke-width:0.264583;fill:#eeeeee;fill-opacity:1"
       inkscape:label="headline"
       aria-label="Bookstore&#10;Riedmann"><path
         style="font-weight:600;font-family:'Georgia Pro';-inkscape-font-specification:'Georgia Pro Semi-Bold';fill:#eeeeee;fill-opacity:1"
         d="m 37.961721,10.484896 q 0,0.897103 -0.713823,1.379416 -0.713824,0.477491 -2.035363,0.477491 h -3.395487 v -0.356912 q 0.135048,-0.0096 0.371381,-0.04341 0.236334,-0.03859 0.299035,-0.0627 0.299034,-0.135048 0.299034,-0.496783 V 6.5154558 q 0,-0.2942112 -0.178456,-0.4244358 Q 32.434409,5.9559722 31.83634,5.8643326 V 5.4977744 h 3.438895 q 1.123791,0 1.717036,0.3906739 0.593246,0.3858508 0.593246,1.1189673 0,0.5980687 -0.409966,1.0080351 -0.409967,0.4051433 -1.297424,0.6221844 v 0.057878 q 0.993566,0.1205784 1.53858,0.5932456 0.545014,0.4726672 0.545014,1.1961377 z M 36.075876,7.1183477 q 0,-1.2057837 -1.287777,-1.2057837 l -0.631831,0.019293 v 2.575554 h 0.424436 q 0.72347,0 1.109321,-0.3424426 0.385851,-0.3472657 0.385851,-1.0466202 z m 0.332796,3.2459693 q 0,-0.6800616 -0.424436,-1.0562662 -0.424436,-0.3762045 -1.176845,-0.3762045 -0.409966,0 -0.651123,0.024116 v 2.454976 q 0.02412,0.245979 0.250803,0.381027 0.231511,0.135048 0.622185,0.135048 0.651123,0 1.012858,-0.405143 0.366558,-0.409967 0.366558,-1.157553 z M 44.86553,9.920589 q 0,0.747586 -0.318327,1.336008 -0.318327,0.588423 -0.911572,0.916396 -0.593246,0.327973 -1.364948,0.327973 -0.709,0 -1.287777,-0.318327 -0.578776,-0.318327 -0.906749,-0.89228 -0.32315,-0.578776 -0.32315,-1.3215387 0,-1.1286135 0.699355,-1.8327912 0.699354,-0.7041777 1.866553,-0.7041777 0.757232,0 1.336008,0.3086806 0.583599,0.3086807 0.897103,0.8874568 0.313504,0.5739531 0.313504,1.2926002 z m -1.36977,0 q 0,-1.0466203 -0.303858,-1.572342 -0.303857,-0.5305448 -0.872987,-0.5305448 -0.5836,0 -0.887457,0.5305448 -0.299034,0.5257217 -0.299034,1.5530494 0,1.0852056 0.299034,1.6495116 0.303857,0.564307 0.887457,0.564307 0.56913,0 0.872987,-0.56913 0.303858,-0.573953 0.303858,-1.625396 z m 8.196408,0 q 0,0.747586 -0.318327,1.336008 -0.318327,0.588423 -0.911573,0.916396 -0.593245,0.327973 -1.364947,0.327973 -0.709001,0 -1.287777,-0.318327 -0.578776,-0.318327 -0.906749,-0.89228 -0.32315,-0.578776 -0.32315,-1.3215387 0,-1.1286135 0.699354,-1.8327912 0.699355,-0.7041777 1.866553,-0.7041777 0.757233,0 1.336009,0.3086806 0.583599,0.3086807 0.897103,0.8874568 0.313504,0.5739531 0.313504,1.2926002 z m -1.369771,0 q 0,-1.0466203 -0.303857,-1.572342 -0.303858,-0.5305448 -0.872988,-0.5305448 -0.583599,0 -0.887456,0.5305448 -0.299035,0.5257217 -0.299035,1.5530494 0,1.0852056 0.299035,1.6495116 0.303857,0.564307 0.887456,0.564307 0.56913,0 0.872988,-0.56913 0.303857,-0.573953 0.303857,-1.625396 z m 6.816993,2.421214 q -0.762055,-1.225077 -1.562695,-2.290989 l -0.342443,0.313503 v 1.090029 q 0,0.279742 0.15434,0.40032 0.154341,0.115755 0.554661,0.149517 v 0.33762 h -2.657547 v -0.33762 q 0.390674,-0.02894 0.496782,-0.07717 0.110933,-0.05305 0.163987,-0.163987 0.05306,-0.110932 0.05306,-0.260449 V 6.0476118 q 0,-0.2073948 -0.110933,-0.390674 Q 53.782488,5.4688356 53.594386,5.410958 53.406284,5.3530803 53.087957,5.3289647 V 4.9913452 l 2.073948,-0.1157552 0.07235,0.07717 V 9.959174 q 0.665593,-0.6125381 1.53858,-1.5096411 0.159163,-0.1591635 0.159163,-0.284565 0,-0.178456 -0.612538,-0.2700955 V 7.5813686 h 2.271697 v 0.3038575 q -0.472667,0.1398709 -0.810287,0.3279732 -0.337619,0.1832791 -0.694531,0.4871366 -0.352089,0.2990343 -0.598069,0.5401911 0.540191,0.7234702 1.659158,2.329574 0.149518,0.217041 0.332797,0.313504 0.188102,0.09646 0.516075,0.120578 v 0.33762 z m 7.053325,-1.432471 q 0,0.718647 -0.559483,1.152729 -0.554661,0.429259 -1.456587,0.429259 -0.361735,0 -0.747586,-0.115755 -0.385851,-0.110933 -0.684885,-0.308681 l -0.115755,0.313504 h -0.366558 l -0.05788,-1.726683 h 0.332796 q 0.106109,0.366559 0.361735,0.709001 0.255627,0.342443 0.5836,0.545014 0.332796,0.197749 0.704177,0.197749 0.911573,0 0.911573,-0.762055 0,-0.303858 -0.241157,-0.496783 -0.236334,-0.197749 -1.032151,-0.429259 -0.795817,-0.231511 -1.147906,-0.6077151 -0.347266,-0.3810277 -0.347266,-0.9163956 0,-0.641477 0.516076,-1.0466203 0.516075,-0.4051433 1.321539,-0.4051433 0.689708,0 1.234722,0.2652724 l 0.110932,-0.2749187 h 0.352089 l 0.08199,1.5916345 H 63.59947 Q 63.454776,8.4977642 63.083394,8.1649679 62.712013,7.8273485 62.248992,7.8273485 q -0.381028,0 -0.602892,0.178456 -0.217041,0.1784559 -0.217041,0.4630209 0,0.2218642 0.08682,0.3665582 0.09164,0.1398709 0.299034,0.250803 0.207395,0.106109 0.858518,0.3038575 0.81511,0.2459799 1.167199,0.6028919 0.352088,0.356912 0.352088,0.916396 z m 4.940791,1.225076 q -0.766879,0.327973 -1.39871,0.327973 -1.287777,0 -1.287777,-1.287777 V 8.0829746 H 65.588501 V 7.6006611 h 0.877811 V 6.129605 h 1.225076 v 1.4710561 h 1.355301 v 0.4823135 h -1.345654 v 2.5996694 q 0,0.501606 0.06752,0.718647 0.06752,0.212218 0.226688,0.313504 0.159163,0.101286 0.448551,0.101286 0.163987,0 0.376205,-0.01929 0.212218,-0.02412 0.313504,-0.04823 z m 6.571012,-2.213819 q 0,0.747586 -0.318327,1.336008 -0.318327,0.588423 -0.911573,0.916396 -0.593245,0.327973 -1.364947,0.327973 -0.709001,0 -1.287777,-0.318327 -0.578776,-0.318327 -0.906749,-0.89228 -0.32315,-0.578776 -0.32315,-1.3215387 0,-1.1286135 0.699354,-1.8327912 0.699355,-0.7041777 1.866554,-0.7041777 0.757232,0 1.336008,0.3086806 0.583599,0.3086807 0.897103,0.8874568 0.313504,0.5739531 0.313504,1.2926002 z m -1.369771,0 q 0,-1.0466203 -0.303857,-1.572342 -0.303858,-0.5305448 -0.872987,-0.5305448 -0.5836,0 -0.887457,0.5305448 -0.299035,0.5257217 -0.299035,1.5530494 0,1.0852056 0.299035,1.6495116 0.303857,0.564307 0.887457,0.564307 0.569129,0 0.872987,-0.56913 0.303857,-0.573953 0.303857,-1.625396 z m 7.280016,-1.6012808 q 0,0.3183269 -0.183279,0.5450142 -0.183279,0.2266874 -0.47749,0.2266874 -0.313504,0 -0.506429,-0.1543403 -0.188103,-0.1591635 -0.188103,-0.4196128 0,-0.2025716 0.0627,-0.3906739 -0.255626,0.00482 -0.525722,0.1688097 -0.265272,0.1639866 -0.453374,0.4389053 V 11.4447 q 0,0.265272 0.149517,0.390673 0.149517,0.120579 0.766878,0.16881 v 0.33762 h -2.874588 v -0.33762 q 0.385851,-0.02412 0.501606,-0.07235 0.115755,-0.05305 0.16881,-0.163986 0.05305,-0.115756 0.05305,-0.265273 V 8.6279888 q 0,-0.1543403 -0.08199,-0.2990343 Q 77.949181,8.1842604 77.833426,8.0926209 77.65497,7.9913351 77.326996,7.9672194 V 7.6295999 l 1.948547,-0.1061089 0.06752,0.067524 v 0.680062 h 0.01929 q 0.655947,-0.8102867 1.413179,-0.8102867 0.381027,0 0.607715,0.2363336 0.23151,0.2363336 0.23151,0.6221844 z m 6.103167,2.8842348 q -0.332796,0.602892 -0.901926,0.945334 -0.56913,0.342443 -1.258838,0.342443 -1.162376,0 -1.837615,-0.684885 -0.670415,-0.684885 -0.670415,-1.8761998 0,-0.680062 0.303857,-1.2588381 0.303858,-0.5787762 0.853695,-0.9067494 0.549837,-0.3327963 1.239546,-0.3327963 1.012858,0 1.577165,0.535368 0.56913,0.5305448 0.56913,1.5192874 v 0.3183269 h -3.202562 q 0,1.0225043 0.405143,1.5434033 0.405144,0.520898 1.186492,0.520898 0.414789,0 0.742762,-0.202571 0.327974,-0.207395 0.641477,-0.699355 z M 86.266167,9.3900441 q 0,-0.8102866 -0.217042,-1.1913143 -0.212217,-0.3810276 -0.641476,-0.3810276 -0.458198,0 -0.728294,0.4196127 -0.270095,0.4196128 -0.289388,1.1623755 z"
         id="path71" /><path
         style="font-weight:600;font-family:'Georgia Pro';-inkscape-font-specification:'Georgia Pro Semi-Bold';fill:#eeeeee;fill-opacity:1"
         d="m 36.842754,22.319447 q -0.737939,-1.138259 -1.181668,-1.755621 -0.443728,-0.617361 -1.027328,-1.336008 h -0.47749 v 2.122179 q 0,0.366559 0.289388,0.496783 0.07235,0.02894 0.303858,0.06752 0.236333,0.03858 0.347265,0.04823 v 0.356912 h -3.270085 v -0.356912 l 0.352089,-0.04341 q 0.226687,-0.02411 0.308681,-0.05305 0.299034,-0.135048 0.299034,-0.496783 v -4.885836 q 0,-0.376204 -0.299034,-0.506429 -0.07717,-0.02412 -0.18328,-0.04823 -0.106109,-0.02412 -0.47749,-0.08682 v -0.366558 h 3.496773 q 1.162375,0 1.774913,0.419613 0.617362,0.419613 0.617362,1.210607 0,0.680062 -0.395497,1.128613 -0.390674,0.443729 -1.278131,0.709001 l 1.673628,2.189703 q 0.188102,0.241157 0.366558,0.424436 0.183279,0.178456 0.361735,0.274919 0.178456,0.09164 0.641477,0.130224 v 0.356912 z m -0.670416,-5.098053 q 0,-0.6463 -0.366558,-0.98392 -0.366558,-0.337619 -1.056266,-0.337619 h -0.593246 v 2.893881 h 0.496783 q 0.704178,0 1.109321,-0.409967 0.409966,-0.409966 0.409966,-1.162375 z M 42.18869,15.69246 q 0,0.32315 -0.236334,0.554661 -0.236334,0.226687 -0.564307,0.226687 -0.318327,0 -0.545014,-0.221864 -0.221864,-0.226687 -0.221864,-0.540191 0,-0.318327 0.221864,-0.549838 0.226687,-0.23151 0.545014,-0.23151 0.332796,0 0.564307,0.226687 0.236334,0.221864 0.236334,0.535368 z m -2.020894,6.626987 v -0.337619 q 0.405143,-0.02894 0.506429,-0.08682 0.106109,-0.05788 0.159164,-0.159164 0.05305,-0.106109 0.05305,-0.255626 v -2.874588 q 0,-0.26045 -0.202572,-0.443729 -0.202571,-0.183279 -0.655946,-0.217041 v -0.337619 l 2.025717,-0.106109 0.06752,0.06752 v 3.853684 q 0,0.236334 0.15434,0.376205 0.159163,0.139871 0.56913,0.183279 v 0.337619 z m 8.919879,-1.138259 q -0.332796,0.602891 -0.901926,0.945334 -0.56913,0.342443 -1.258838,0.342443 -1.162375,0 -1.837614,-0.684886 -0.670416,-0.684885 -0.670416,-1.876199 0,-0.680062 0.303857,-1.258838 0.303858,-0.578776 0.853695,-0.90675 0.549838,-0.332796 1.239546,-0.332796 1.012858,0 1.577165,0.535368 0.56913,0.530545 0.56913,1.519288 v 0.318326 h -3.202562 q 0,1.022505 0.405144,1.543404 0.405143,0.520898 1.186491,0.520898 0.414789,0 0.742763,-0.202571 0.327973,-0.207395 0.641477,-0.699355 z m -1.451763,-1.813499 q 0,-0.810287 -0.217041,-1.191314 -0.212218,-0.381028 -0.641477,-0.381028 -0.458198,0 -0.728294,0.419613 -0.270095,0.419612 -0.289388,1.162375 z m 6.69159,2.980697 -0.08199,-0.06752 v -0.443728 l -0.03858,-0.0096 q -0.289388,0.303857 -0.665593,0.472667 -0.371381,0.16881 -0.747586,0.16881 -0.598068,0 -1.090028,-0.32315 -0.49196,-0.323151 -0.771702,-0.911573 -0.279741,-0.588422 -0.279741,-1.326362 0,-0.684885 0.30868,-1.254015 0.308681,-0.573953 0.853695,-0.901926 0.545014,-0.332797 1.167199,-0.332797 0.72347,0 1.254015,0.308681 V 16.10725 q 0,-0.241157 -0.101286,-0.424436 -0.101286,-0.183279 -0.318327,-0.260449 -0.212218,-0.08199 -0.684885,-0.125402 V 14.96899 l 2.281343,-0.115755 0.06752,0.07717 v 6.371361 q 0,0.139871 0.03858,0.24598 0.04341,0.106109 0.125401,0.183279 0.08682,0.07235 0.188102,0.106109 0.106109,0.02894 0.50643,0.05788 v 0.337619 z m -0.09164,-3.72346 q -0.125402,-0.390674 -0.385851,-0.588422 -0.260449,-0.202572 -0.612538,-0.202572 -0.545014,0 -0.887457,0.583599 -0.337619,0.5836 -0.337619,1.562696 0,0.853695 0.332796,1.364947 0.337619,0.511252 0.930865,0.511252 0.284565,0 0.506429,-0.101285 0.221864,-0.106109 0.453375,-0.376205 z m 9.783219,3.694521 v -0.337619 q 0.390674,-0.01447 0.511253,-0.120578 0.120578,-0.110933 0.120578,-0.381028 v -2.363336 q 0,-0.506429 -0.202572,-0.757232 -0.202571,-0.255626 -0.540191,-0.255626 -0.332796,0 -0.63183,0.178456 -0.299035,0.173632 -0.472667,0.482313 v 2.667194 q 0,0.241156 0.130224,0.371381 0.130225,0.125401 0.501606,0.178456 v 0.337619 h -2.50803 v -0.337619 q 0.390674,-0.02412 0.506429,-0.135048 0.115755,-0.110932 0.115755,-0.366558 v -2.363336 q 0,-0.506429 -0.202571,-0.757232 -0.202572,-0.255626 -0.540191,-0.255626 -0.332797,0 -0.627008,0.173632 -0.294211,0.173633 -0.47749,0.487137 v 2.657547 q 0,0.250803 0.135048,0.381028 0.135047,0.130225 0.516075,0.178456 v 0.337619 h -2.609316 v -0.337619 q 0.41479,-0.01929 0.56913,-0.125402 0.15434,-0.110932 0.15434,-0.376204 v -2.884235 q 0,-0.284565 -0.212218,-0.453374 -0.212217,-0.173633 -0.578776,-0.197749 v -0.337619 l 1.948547,-0.106109 0.07717,0.06752 v 0.670415 h 0.01929 l 0.303858,-0.289388 q 0.284565,-0.270095 0.612538,-0.40032 0.332796,-0.130225 0.752409,-0.130225 0.482314,0 0.834402,0.231511 0.352089,0.226687 0.540191,0.627007 l 0.327974,-0.303857 q 0.602891,-0.554661 1.398709,-0.554661 0.684885,0 1.04662,0.424436 0.366558,0.419613 0.366558,1.205784 v 2.382629 q 0,0.255626 0.144694,0.381027 0.144694,0.120579 0.56913,0.16881 v 0.337619 z m 9.132095,-0.08682 q -0.144694,0.0627 -0.424436,0.139871 -0.274919,0.07717 -0.516075,0.07717 -0.901927,0 -1.075559,-0.694531 h -0.02894 q -0.66077,0.704177 -1.601281,0.704177 -0.559484,0 -0.921219,-0.332796 -0.361735,-0.332796 -0.361735,-0.863341 0,-0.496783 0.250803,-0.824756 0.255626,-0.332796 0.786171,-0.520899 l 0.487137,-0.168809 q 0.55466,-0.178456 0.887457,-0.289389 0.332796,-0.110932 0.482313,-0.192925 v -0.463021 q 0,-0.501606 -0.217041,-0.757232 -0.212218,-0.260449 -0.593246,-0.260449 -0.23151,0 -0.395497,0.07235 -0.163986,0.06752 -0.236333,0.135047 0.01447,0.110933 0.06752,0.279742 0.05305,0.16881 0.05305,0.371382 0,0.236333 -0.188102,0.381027 -0.188102,0.144694 -0.516076,0.144694 -0.299034,0 -0.472667,-0.168809 -0.168809,-0.16881 -0.168809,-0.463021 0,-0.299035 0.279741,-0.559484 0.284565,-0.260449 0.73794,-0.414789 0.458198,-0.154341 0.906749,-0.154341 0.757232,0 1.172022,0.16881 0.419613,0.16881 0.617361,0.525722 0.197749,0.356912 0.197749,0.906749 l -0.02894,2.319928 q 0,0.159163 0.03858,0.265272 0.03858,0.106109 0.130225,0.183279 0.09164,0.07717 0.178456,0.09646 0.09164,0.01929 0.24598,0.01929 0.159163,0 0.226687,0 z m -2.035363,-2.541792 q -0.675239,0.217041 -0.979096,0.40032 -0.299035,0.178456 -0.453375,0.419613 -0.149517,0.236333 -0.149517,0.564307 0,0.352088 0.173633,0.549837 0.173633,0.192925 0.487136,0.192925 0.178456,0 0.318327,-0.04823 0.139871,-0.04823 0.26045,-0.125401 0.120578,-0.07717 0.32315,-0.294212 z m 6.686767,2.628608 v -0.337619 l 0.236333,-0.01929 q 0.236334,-0.01929 0.327973,-0.135047 0.09646,-0.115756 0.09646,-0.347266 v -2.35369 q 0,-0.511252 -0.207395,-0.766878 -0.207395,-0.255626 -0.549837,-0.255626 -0.347266,0 -0.665593,0.183279 -0.313503,0.183279 -0.482313,0.47749 v 2.667194 q 0,0.313503 0.236333,0.443728 0.173633,0.07235 0.443729,0.106109 v 0.337619 h -2.638255 v -0.337619 q 0.385851,-0.02412 0.501606,-0.07235 0.115755,-0.05306 0.16881,-0.163987 0.05305,-0.115755 0.05305,-0.265272 v -2.874588 q 0,-0.154341 -0.08199,-0.299035 -0.07717,-0.144694 -0.192925,-0.236333 -0.178456,-0.101286 -0.506429,-0.125402 v -0.337619 l 1.948546,-0.106109 0.06752,0.06752 v 0.680062 h 0.01929 l 0.308681,-0.289388 q 0.573953,-0.540192 1.379417,-0.540192 0.699354,0 1.075559,0.409967 0.376204,0.409966 0.376204,1.191314 v 2.421214 q 0,0.250803 0.149517,0.376204 0.149517,0.120579 0.554661,0.163987 v 0.337619 z m 7.352359,0 v -0.337619 l 0.236334,-0.01929 q 0.236334,-0.01929 0.327973,-0.135047 0.09646,-0.115756 0.09646,-0.347266 v -2.35369 q 0,-0.511252 -0.207395,-0.766878 -0.207395,-0.255626 -0.549837,-0.255626 -0.347266,0 -0.665593,0.183279 -0.313504,0.183279 -0.482313,0.47749 v 2.667194 q 0,0.313503 0.236333,0.443728 0.173633,0.07235 0.443729,0.106109 v 0.337619 h -2.638255 v -0.337619 q 0.385851,-0.02412 0.501606,-0.07235 0.115755,-0.05306 0.16881,-0.163987 0.05305,-0.115755 0.05305,-0.265272 v -2.874588 q 0,-0.154341 -0.08199,-0.299035 -0.07717,-0.144694 -0.192926,-0.236333 -0.178456,-0.101286 -0.506429,-0.125402 v -0.337619 l 1.948547,-0.106109 0.06752,0.06752 v 0.680062 h 0.01929 l 0.308681,-0.289388 q 0.573953,-0.540192 1.379416,-0.540192 0.699355,0 1.075559,0.409967 0.376205,0.409966 0.376205,1.191314 v 2.421214 q 0,0.250803 0.149517,0.376204 0.149517,0.120579 0.554661,0.163987 v 0.337619 z"
         id="path72" /></g></g></svg>
