<?xml version="1.0" encoding="UTF-8" standalone="no"?>
<!-- Created with Inkscape (http://www.inkscape.org/) -->

<svg
   width="128.69385mm"
   height="112.04477mm"
   viewBox="0 0 128.69385 112.04477"
   version="1.1"
   id="svg1"
   xml:space="preserve"
   inkscape:version="1.3 (0e150ed6c4, 2023-07-21)"
   sodipodi:docname="knowledge.svg"
   xmlns:inkscape="http://www.inkscape.org/namespaces/inkscape"
   xmlns:sodipodi="http://sodipodi.sourceforge.net/DTD/sodipodi-0.dtd"
   xmlns="http://www.w3.org/2000/svg"
   xmlns:svg="http://www.w3.org/2000/svg"><sodipodi:namedview
     id="namedview1"
     pagecolor="#505050"
     bordercolor="#eeeeee"
     borderopacity="1"
     inkscape:showpageshadow="0"
     inkscape:pageopacity="0"
     inkscape:pagecheckerboard="0"
     inkscape:deskcolor="#505050"
     inkscape:document-units="mm"
     inkscape:zoom="0.99150695"
     inkscape:cx="257.18428"
     inkscape:cy="235.50011"
     inkscape:window-width="1920"
     inkscape:window-height="1001"
     inkscape:window-x="-9"
     inkscape:window-y="-9"
     inkscape:window-maximized="1"
     inkscape:current-layer="svg1"
     showgrid="true"><inkscape:grid
       id="grid13"
       units="px"
       originx="-148.19196"
       originy="-115.65811"
       spacingx="0.26458333"
       spacingy="0.26458334"
       empcolor="#0099e5"
       empopacity="0.30196078"
       color="#0099e5"
       opacity="0.14901961"
       empspacing="2"
       dotted="false"
       gridanglex="30"
       gridanglez="30"
       visible="true" /></sodipodi:namedview><defs
     id="defs1" /><path
     style="fill:none;stroke:#ffffff;stroke-width:2;stroke-linecap:round;stroke-linejoin:round;stroke-dasharray:none;stroke-dashoffset:1.80371;stroke-opacity:0.997167"
     d="M 62.107304,50.765021 C 58.491085,37.65188 84.025639,32.613047 84.656101,38.356508 c 2.86749,-8.295463 13.652504,-5.77169 13.876187,-3.469044 3.449652,-6.584505 30.740532,-2.093948 30.687712,3.202196 12.74155,-4.686105 33.22874,14.428676 23.21593,20.814276 12.87619,-9.870091 17.58245,23.351368 8.53919,19.746878 10.72236,3.95848 4.67097,16.7718 -0.5337,15.74413 12.68584,8.758356 -9.89379,24.182076 -14.94358,19.746876 1.51829,9.12807 3.95884,13.1837 6.13754,18.67948 1.92082,3.5045 1.63065,6.45626 -2.1348,8.53919 -3.33329,1.36039 -9.75895,-3.00179 -10.97321,-4.47448 -2.4412,-2.18387 -5.12494,-7.27404 -8.10654,-15.8061 -2.22375,-3.71847 -4.03103,-5.3179 -6.25478,-6.0136 -5.83697,3.39155 -10.54496,2.88536 -13.89237,-2.25874 -12.631207,8.14156 -27.449628,2.09247 -28.953198,-6.27097 -8.855951,5.40878 -18.100397,-4.05883 -16.678107,-6.804656 -3.423418,8.801456 -16.165064,0.0944 -12.541935,-4.13617 C 42.023861,104.7163 34.781571,70.716134 45.56262,71.846154 36.019906,69.625484 58.100554,40.411345 62.107304,50.765021 Z"
     id="brain"
     sodipodi:nodetypes="ccccccccccccccccccc"
     inkscape:label="brain"
     transform="translate(-39.209123,-30.601208)" /><path
     id="gear-large"
     style="fill:#ffffff;fill-opacity:1;stroke:#474747;stroke-width:1.01761;stroke-linecap:round;stroke-linejoin:round;stroke-dasharray:none;stroke-dashoffset:1.80371;stroke-opacity:0.997167"
     inkscape:label="gear-large"
     d="m 58.157664,17.003434 a 16.424463,16.424463 0 0 0 -2.3824,0.17697 l -0.767054,3.823681 a 12.840184,12.840184 0 0 0 -3.532844,1.483875 l -3.21967,-2.111823 A 16.424463,16.424463 0 0 0 44.904554,23.7946 l 2.187286,3.200993 a 12.840184,12.840184 0 0 0 -1.345556,3.309075 l -3.838407,0.750482 a 16.424463,16.424463 0 0 0 -0.174869,2.372678 16.424463,16.424463 0 0 0 0.183809,2.413691 l 3.838931,0.74181 a 12.840184,12.840184 0 0 0 1.35345,3.297499 l -2.183342,3.208886 a 16.424463,16.424463 0 0 0 3.359558,3.412416 l 3.226761,-2.126022 a 12.840184,12.840184 0 0 0 3.515234,1.468361 l 0.777302,3.837354 a 16.424463,16.424463 0 0 0 2.352953,0.17066 16.424463,16.424463 0 0 0 2.407386,-0.18249 l 0.767837,-3.82789 a 12.840184,12.840184 0 0 0 3.52206,-1.474938 l 3.21204,2.10709 a 16.424463,16.424463 0 0 0 3.35379,-3.426618 l -2.17284,-3.180217 a 12.840184,12.840184 0 0 0 1.35293,-3.313542 l 3.80423,-0.743648 a 16.424463,16.424463 0 0 0 0.17697,-2.382402 16.424463,16.424463 0 0 0 -0.17831,-2.41212 l -3.77792,-0.730239 a 12.840184,12.840184 0 0 0 -1.37001,-3.345621 l 2.16941,-3.188639 a 16.424463,16.424463 0 0 0 -3.348,-3.409518 l -3.21729,2.119972 a 12.840184,12.840184 0 0 0 -3.55914,-1.493341 L 60.53297,17.176985 a 16.424463,16.424463 0 0 0 -2.375306,-0.173551 z m 0.239029,10.005309 a 6.449163,6.449163 0 0 1 6.449314,6.44932 6.449163,6.449163 0 0 1 -6.449314,6.449062 6.449163,6.449163 0 0 1 -6.449058,-6.449062 6.449163,6.449163 0 0 1 6.449058,-6.44932 z" /><path
     id="gear-medium"
     style="fill:#ffffff;fill-opacity:1;stroke:#474747;stroke-width:0.763208;stroke-linecap:round;stroke-linejoin:round;stroke-dasharray:none;stroke-dashoffset:1.80371;stroke-opacity:0.997167"
     inkscape:label="gear-medium"
     d="m 77.738907,31.884384 a 12.318351,12.318351 0 0 0 -1.58029,0.844352 l 0.63426,2.855299 a 9.6301408,9.6301408 0 0 0 -1.97275,2.089829 L 71.971007,37.2025 a 12.318351,12.318351 0 0 0 -1.26104,3.361552 l 2.47157,1.531679 a 9.6301408,9.6301408 0 0 0 0.0813,2.67791 l -2.40487,1.679548 a 12.318351,12.318351 0 0 0 0.60009,1.6804 12.318351,12.318351 0 0 0 0.85853,1.599686 l 2.85811,-0.656204 a 9.6301408,9.6301408 0 0 0 1.92895,1.850914 l -0.52369,2.863428 a 12.318351,12.318351 0 0 0 3.33974,1.320945 l 1.56795,-2.43737 a 9.6301408,9.6301408 0 0 0 2.85657,-0.05966 l 1.69763,2.396017 a 12.318351,12.318351 0 0 0 1.66559,-0.596986 12.318351,12.318351 0 0 0 1.59576,-0.855721 l -0.635,-2.858425 a 9.6301408,9.6301408 0 0 0 1.96807,-2.080431 l 2.84244,0.47044 a 12.318351,12.318351 0 0 0 1.26039,-3.367954 l -2.45536,-1.521815 a 9.6301408,9.6301408 0 0 0 -0.0776,-2.683206 l 2.38351,-1.664492 a 12.318351,12.318351 0 0 0 -0.6016,-1.687708 12.318351,12.318351 0 0 0 -0.85429,-1.600276 l -2.81274,0.645621 a 9.6301408,9.6301408 0 0 0 -1.95492,-1.87889 l 0.52028,-2.845309 a 12.318351,12.318351 0 0 0 -3.33094,-1.322465 l -1.56328,2.430348 a 9.6301408,9.6301408 0 0 0 -2.89427,0.05585 l -1.67717,-2.367329 a 12.318351,12.318351 0 0 0 -1.68181,0.60179 z m 3.20021,6.789741 a 4.8368736,4.8368736 0 0 1 6.38049,2.466217 4.8368736,4.8368736 0 0 1 -2.46628,6.380318 4.8368736,4.8368736 0 0 1 -6.38024,-2.466115 4.8368736,4.8368736 0 0 1 2.46603,-6.38042 z" /><path
     id="gear-small"
     style="fill:#ffffff;fill-opacity:1;stroke:#474747;stroke-width:0.572406;stroke-linecap:round;stroke-linejoin:round;stroke-dasharray:none;stroke-dashoffset:1.80371;stroke-opacity:0.997167"
     inkscape:label="gear-small"
     d="m 74.826447,53.293332 a 9.2387646,9.2387646 0 0 0 -1.3401,0.09955 l -0.43147,2.150822 a 7.2226066,7.2226066 0 0 0 -1.98722,0.83468 l -1.81107,-1.187901 a 9.2387646,9.2387646 0 0 0 -1.88502,1.922886 l 1.23035,1.80056 a 7.2226066,7.2226066 0 0 0 -0.75687,1.861355 l -2.1591,0.422146 a 9.2387646,9.2387646 0 0 0 -0.0984,1.334633 9.2387646,9.2387646 0 0 0 0.10338,1.357697 l 2.1594,0.417272 a 7.2226066,7.2226066 0 0 0 0.76132,1.854844 l -1.22813,1.804999 a 9.2387646,9.2387646 0 0 0 1.88975,1.919488 l 1.81505,-1.195887 a 7.2226066,7.2226066 0 0 0 1.97732,0.825947 l 0.43723,2.15852 a 9.2387646,9.2387646 0 0 0 1.32354,0.096 9.2387646,9.2387646 0 0 0 1.35416,-0.10264 l 0.43191,-2.1532 a 7.2226066,7.2226066 0 0 0 1.98116,-0.829656 l 1.80677,1.185236 a 9.2387646,9.2387646 0 0 0 1.8865,-1.927475 l -1.22222,-1.788873 a 7.2226066,7.2226066 0 0 0 0.76102,-1.863868 l 2.13988,-0.418303 a 9.2387646,9.2387646 0 0 0 0.0995,-1.340098 9.2387646,9.2387646 0 0 0 -0.10029,-1.356819 l -2.12508,-0.41076 a 7.2226066,7.2226066 0 0 0 -0.77063,-1.881912 l 1.2203,-1.79361 a 9.2387646,9.2387646 0 0 0 -1.88325,-1.917855 l -1.80973,1.192485 a 7.2226066,7.2226066 0 0 0 -2.00202,-0.840005 l -0.43191,-2.132628 a 9.2387646,9.2387646 0 0 0 -1.33611,-0.09762 z m 0.13445,5.627989 a 3.6276557,3.6276557 0 0 1 3.62775,3.627744 3.6276557,3.6276557 0 0 1 -3.62775,3.627599 3.6276557,3.6276557 0 0 1 -3.6276,-3.627599 3.6276557,3.6276557 0 0 1 3.6276,-3.627744 z" /></svg>
