<?xml version="1.0" encoding="UTF-8" standalone="no"?>
<!-- Created with Inkscape (http://www.inkscape.org/) -->

<svg
   width="138.71884mm"
   height="90.939026mm"
   viewBox="0 0 138.71884 90.939026"
   version="1.1"
   id="svg1"
   inkscape:version="1.3 (0e150ed6c4, 2023-07-21)"
   sodipodi:docname="stories.svg"
   xmlns:inkscape="http://www.inkscape.org/namespaces/inkscape"
   xmlns:sodipodi="http://sodipodi.sourceforge.net/DTD/sodipodi-0.dtd"
   xmlns="http://www.w3.org/2000/svg"
   xmlns:svg="http://www.w3.org/2000/svg">
  <sodipodi:namedview
     id="namedview1"
     pagecolor="#505050"
     bordercolor="#eeeeee"
     borderopacity="1"
     inkscape:showpageshadow="0"
     inkscape:pageopacity="0"
     inkscape:pagecheckerboard="0"
     inkscape:deskcolor="#505050"
     inkscape:document-units="mm"
     showgrid="true"
     inkscape:zoom="0.99150695"
     inkscape:cx="54.966836"
     inkscape:cy="140.69493"
     inkscape:window-width="1920"
     inkscape:window-height="1001"
     inkscape:window-x="-9"
     inkscape:window-y="-9"
     inkscape:window-maximized="1"
     inkscape:current-layer="layer1">
    <inkscape:grid
       id="grid1"
       units="px"
       originx="-157.95612"
       originy="-322.18314"
       spacingx="0.26458333"
       spacingy="0.26458334"
       empcolor="#0099e5"
       empopacity="0.30196078"
       color="#0099e5"
       opacity="0.14901961"
       empspacing="2"
       dotted="false"
       gridanglex="30"
       gridanglez="30"
       visible="true" />
  </sodipodi:namedview>
  <defs
     id="defs1">
    <inkscape:path-effect
       effect="spiro"
       id="path-effect15"
       is_visible="true"
       lpeversion="1" />
    <inkscape:path-effect
       effect="spiro"
       id="path-effect14"
       is_visible="true"
       lpeversion="1" />
    <inkscape:path-effect
       effect="spiro"
       id="path-effect13"
       is_visible="true"
       lpeversion="1" />
    <inkscape:path-effect
       effect="spiro"
       id="path-effect12"
       is_visible="true"
       lpeversion="1" />
    <inkscape:path-effect
       effect="spiro"
       id="path-effect11"
       is_visible="true"
       lpeversion="1" />
    <inkscape:path-effect
       effect="spiro"
       id="path-effect10"
       is_visible="true"
       lpeversion="1" />
    <inkscape:path-effect
       effect="spiro"
       id="path-effect9"
       is_visible="true"
       lpeversion="1" />
    <inkscape:path-effect
       effect="spiro"
       id="path-effect8"
       is_visible="true"
       lpeversion="1" />
  </defs>
  <g
     inkscape:label="Ebene 1"
     inkscape:groupmode="layer"
     id="layer1"
     transform="translate(-41.792556,-85.244293)">
    <g
       id="pen"
       inkscape:label="pen"
       transform="matrix(0.93817943,0,0,0.99917055,2.5453836,0.08998067)">
      <path
         style="fill:#000000;fill-opacity:0;stroke:#ffffff;stroke-width:1;stroke-linecap:round;stroke-linejoin:round;stroke-dasharray:none;stroke-dashoffset:1.80371;stroke-opacity:1"
         d="m 42.333333,86.783335 v 35.983335 l 2.116666,1.05833 h 2.116664 l 2.116667,-1.05833 V 86.783335 l -2.116667,1.058333 h -2.116664 z"
         id="path1" />
      <path
         style="fill:#000000;fill-opacity:0;stroke:#ffffff;stroke-width:1;stroke-linecap:round;stroke-linejoin:round;stroke-dasharray:none;stroke-dashoffset:1.80371;stroke-opacity:1"
         d="m 42.333333,86.783335 2.116666,-1.058333 h 2.116664 l 2.116667,1.058333 v 0"
         id="path2" />
      <path
         style="fill:#000000;fill-opacity:0;stroke:#ffffff;stroke-width:0.5;stroke-linecap:round;stroke-linejoin:round;stroke-dasharray:none;stroke-dashoffset:1.80371;stroke-opacity:1"
         d="M 44.449999,87.841668 V 123.825"
         id="path3" />
      <path
         style="fill:#000000;fill-opacity:0;stroke:#ffffff;stroke-width:0.5;stroke-linecap:round;stroke-linejoin:round;stroke-dasharray:none;stroke-dashoffset:1.80371;stroke-opacity:1"
         d="M 46.566663,87.841668 V 123.825"
         id="path4" />
      <path
         style="fill:#000000;fill-opacity:0;stroke:#ffffff;stroke-width:1;stroke-linecap:round;stroke-linejoin:round;stroke-dasharray:none;stroke-dashoffset:1.80371;stroke-opacity:1"
         d="m 42.333333,122.76667 3.174997,8.46667 3.175,-8.46667"
         id="path5" />
      <path
         style="fill:#ffffff;fill-opacity:1;stroke:#ffffff;stroke-width:0.1;stroke-linecap:round;stroke-linejoin:round;stroke-dasharray:none;stroke-dashoffset:1.80371;stroke-opacity:1"
         d="m 46.831247,128.05834 h -2.645831 l 1.322914,3.175 z"
         id="path6" />
    </g>
    <path
       style="fill:#ffffff;fill-opacity:0;stroke:#ffffff;stroke-width:1;stroke-linecap:round;stroke-linejoin:round;stroke-dasharray:none;stroke-dashoffset:1.80371;stroke-opacity:0.997167"
       d="M 63.499995,150.28334 C 84.666663,120.65001 114.3,122.76668 131.23333,88.900003 c 25.4,6.35 48.68333,19.049997 48.68333,19.049997 2.95015,19.50944 -65.28829,48.73825 -71.96666,67.73334 -23.283337,-12.69999 -44.450005,-25.4 -44.450005,-25.4 z"
       id="paper"
       sodipodi:nodetypes="ccccc"
       inkscape:label="paper" />
    <path
       style="fill:#ffffff;fill-opacity:0;stroke:#ffffff;stroke-width:1;stroke-linecap:round;stroke-linejoin:round;stroke-dasharray:none;stroke-dashoffset:1.80371;stroke-opacity:0.997167"
       d="m 59.266663,71.966668 c -0.08988,-0.0738 -0.153004,-0.179496 -0.175362,-0.293618 -0.02236,-0.114122 -0.0038,-0.235827 0.0516,-0.338084 0.05539,-0.102256 0.147169,-0.184309 0.254968,-0.227936 0.107799,-0.04363 0.230816,-0.0485 0.34173,-0.01355 0.110915,0.03496 0.208907,0.109485 0.272213,0.207036 0.06331,0.09755 0.09146,0.217403 0.0782,0.332937 -0.01325,0.115535 -0.06781,0.225898 -0.151567,0.30658 -0.08375,0.08068 -0.196075,0.131084 -0.312024,0.140015 -0.128469,0.0099 -0.260183,-0.03162 -0.359765,-0.113382 -0.0805,-0.0661 -0.139581,-0.157242 -0.169943,-0.256879 -0.03036,-0.09964 -0.03228,-0.207371 -0.0084,-0.308764 0.0477,-0.202786 0.198158,-0.373895 0.384053,-0.46792 0.185895,-0.09402 0.403573,-0.115132 0.609221,-0.08187 0.205648,0.03326 0.400223,0.118437 0.57824,0.226638 0.356034,0.216402 0.648968,0.522987 0.995372,0.754491 0.173202,0.115753 0.36114,0.212968 0.563171,0.263771 0.202031,0.0508 0.41939,0.05325 0.615834,-0.01609 0.243167,-0.08582 0.434877,-0.271535 0.633397,-0.436112 0.09926,-0.08229 0.202679,-0.160799 0.317228,-0.21998 0.11455,-0.05918 0.241278,-0.09862 0.370212,-0.09867 0.138602,-5.3e-5 0.274646,0.04553 0.394689,0.114817 0.120043,0.06928 0.225268,0.161626 0.322844,0.260061 0.195152,0.196872 0.366969,0.423709 0.603306,0.568579 0.274236,0.168102 0.613493,0.208347 0.931631,0.160892 0.318138,-0.04746 0.618576,-0.176767 0.902367,-0.328182 0.283791,-0.151415 0.554888,-0.325962 0.840755,-0.473421 0.285867,-0.147458 0.590541,-0.268586 0.91038,-0.302746 0.327485,-0.03498 0.660248,0.02295 0.970891,0.132357 0.310644,0.109408 0.601157,0.26917 0.881599,0.441859 0.560886,0.345378 1.10022,0.751147 1.732644,0.935314 0.489636,0.142586 1.019894,0.142586 1.50953,0 0.740715,-0.572461 1.177078,-1.517916 1.132146,-2.452984 -0.003,-0.06292 -0.0081,-0.126222 0,-0.188693 0.01908,-0.147741 0.113968,-0.281346 0.241827,-0.357787 0.12786,-0.07644 0.28543,-0.09739 0.43152,-0.06825 0.146089,0.02914 0.280525,0.10627 0.388004,0.209418 0.10748,0.103148 0.18886,0.23154 0.247668,0.368409 0.117615,0.273737 0.145657,0.576093 0.178045,0.872263 0.03239,0.29617 0.07273,0.599036 0.211159,0.862859 0.113433,0.216184 0.289681,0.3969 0.49574,0.527829 0.206059,0.130928 0.441214,0.213069 0.682042,0.253123 0.481655,0.08011 0.976301,-0.0061 1.445999,-0.139512 0.469699,-0.133389 0.925766,-0.313878 1.400393,-0.428499 0.474628,-0.114621 0.979163,-0.161082 1.44787,-0.02425 0.541162,0.157985 0.986634,0.544064 1.50953,0.754766 0.708584,0.285526 1.501471,0.230096 2.264296,0.18869 1.696556,-0.09209 3.398107,-0.09209 5.094663,0 -3.33e-4,-0.110296 0.02845,-0.220551 0.08264,-0.316613 0.0542,-0.09606 0.133688,-0.177707 0.228267,-0.234454 0.09458,-0.05675 0.204024,-0.08846 0.31429,-0.09108 0.110266,-0.0026 0.221093,0.02388 0.318256,0.07607 0.118173,0.06349 0.213286,0.162259 0.299865,0.264724 0.08658,0.102466 0.16725,0.210782 0.266208,0.301349 0.228151,0.208805 0.540572,0.308607 0.849385,0.325559 0.308813,0.01695 0.616762,-0.04281 0.916369,-0.119549 0.299606,-0.07674 0.595324,-0.170855 0.899846,-0.224881 0.304522,-0.05403 0.622326,-0.06669 0.919533,0.01887 0.426977,0.122919 0.788064,0.455627 0.945444,0.871138"
       id="scribble-1"
       inkscape:path-effect="#path-effect10"
       inkscape:original-d="m 59.266663,71.966668 c 0.119923,0.03779 0.321972,0.233305 0.359765,0.113382 0.0378,-0.119922 -0.467582,-0.04869 -0.359765,-0.113382 2.840252,-1.704149 1.522749,1.135764 3.567518,0.113382 0.109286,-0.05464 1.293886,-0.795194 1.320837,-0.754766 0.363564,0.545343 0.244901,1.139082 1.320839,0.943457 0.828151,-0.150572 2.615695,-1.589749 3.585133,-0.943457 1.877391,1.251596 0.81906,1.50953 3.585134,1.50953 0.07085,0 1.47561,0.07462 1.50953,0 2.30193,-6.330307 -0.124982,-0.567293 1.132146,-2.452984 0.03489,-0.05233 -0.05233,-0.223581 0,-0.188693 0.738286,0.492189 0.808128,1.590215 1.698223,1.886913 1.351849,0.450617 4.176456,-0.135207 5.472044,0.188691 0.473316,0.118329 0.987422,0.624239 1.50953,0.754766 0.62575,0.156437 1.639051,0.126166 2.264296,0.18869 1.069303,0.106931 4.201303,0.297786 5.094663,0 0.539486,0.343091 0.649102,-0.418896 0.943457,-0.566073 0.472823,-0.236413 0.395848,0.395848 0.566073,0.566073 0.338124,0.338124 3.146573,-0.336859 3.585133,0 0.339847,0.261041 0.630296,0.580758 0.945444,0.871138"
       transform="rotate(22.097297,22.16966,275.68245)"
       inkscape:label="scribble-1" />
    <path
       style="fill:#ffffff;fill-opacity:1;stroke:#ffffff;stroke-width:0.255427;stroke-linecap:round;stroke-linejoin:round;stroke-dasharray:none;stroke-dashoffset:1.80371;stroke-opacity:0.997167"
       id="scribble-2"
       d="m 126.26539,108.79632 c 0.4498,-0.36294 0.9914,-0.66815 1.63154,-0.89267 0.17189,-0.0603 0.35769,-0.10884 0.53655,-0.16325 0.45689,-0.0904 0.91167,-0.1955 1.45151,-0.20006 0.149,-0.001 0.43976,0.002 0.65034,0.1085 0.097,0.0491 0.16535,0.12468 0.24803,0.18699 -0.20918,-0.17436 -0.35725,-0.42086 -0.6275,-0.52318 -0.18516,-0.0701 0.1813,0.25342 0.23706,0.37535 0.0802,0.17529 0.12707,0.34429 0.16813,0.51069 0.1368,0.55457 0.13443,1.07041 0.15239,1.5864 0.0257,0.13343 0.0185,0.25872 0.0771,0.40032 0.17703,0.42793 1.19286,1.08096 1.58031,1.29109 0.21353,0.11598 0.42949,0.0772 0.62544,0.0859 0.45113,0.02 1.31588,-0.0592 1.70409,-0.0881 0.60054,-0.0438 1.36882,-0.20959 2.2024,0.10462 0.17694,0.0667 0.43364,0.33992 0.50733,0.27396 0.0763,-0.0683 -0.41459,-0.46436 -0.41306,-0.35833 0.002,0.14692 0.2769,0.34529 0.41536,0.51793 0.36315,0.55597 0.32731,0.48021 0.62424,1.01336 0.0754,0.13529 0.11923,0.26732 0.21645,0.40457 0.27852,0.39322 1.42009,1.19484 1.62121,1.31021 0.19717,0.11309 0.39833,0.0675 0.59751,0.10124 0.8454,0.0606 0.50645,0.0441 1.33623,0.0718 0.20091,0.007 0.39106,-0.003 0.60157,0.0186 0.16748,0.0167 0.342,0.0279 0.52605,0.0939 0.37306,0.13387 0.56529,0.36998 0.79242,0.58254 -0.17677,-0.12014 -0.4126,-0.41226 -0.5303,-0.36046 -0.14029,0.0618 0.1807,0.32254 0.25567,0.48135 0.0739,0.15662 0.12869,0.30965 0.19052,0.46396 0.0537,0.13397 0.0764,0.26261 0.15605,0.40085 0.24856,0.43141 1.20175,1.02516 1.5504,1.29083 0.18598,0.0197 0.3818,0.054 0.55797,0.059 0.39011,0.0112 1.00671,-0.057 1.34815,-0.0871 0.38576,-0.0341 0.76813,-0.11487 1.27079,7.3e-4 0.16468,0.0379 0.33766,0.13041 0.50649,0.19561 0.13573,0.0999 0.49569,0.40956 0.40722,0.29951 -0.11256,-0.14004 -0.36394,-0.44816 -0.48472,-0.3959 -0.13079,0.0566 0.23833,0.30343 0.3483,0.45494 0.011,0.0151 0.52843,0.77789 0.57159,0.8219 0.37249,0.37981 0.80487,0.74881 1.2073,1.12321 0.19362,0.0865 0.38543,0.19231 0.58085,0.25938 0.24967,0.0853 0.49641,0.14083 0.73771,0.19097 0.55768,0.11583 1.27885,0.19273 1.80364,0.25992 1.14447,0.14652 0.62153,0.0587 1.73059,0.2873 0.57902,0.20826 0.76768,0.22118 1.25725,0.59958 0.17375,0.13433 0.42744,0.29942 0.44112,0.42707 0.01,0.0927 -0.38914,-0.33835 -0.4236,-0.2638 -0.004,0.008 0.59089,0.90673 0.61424,0.94217 0.5812,0.63728 0.65828,0.7939 1.97241,1.46607 0.31003,0.15856 0.62749,0.1532 0.94123,0.22981 0,0 -0.73166,-0.73514 -0.73166,-0.73514 v 0 c -0.31729,-0.0887 -0.72426,-0.31374 -0.95185,-0.26625 -0.37005,0.0773 0.63443,1.00516 -0.29963,0.0526 -0.10358,-0.15306 -0.21126,-0.3064 -0.31076,-0.45915 -0.10806,-0.16588 -0.16937,-0.33008 -0.3118,-0.4966 -0.36422,-0.42585 -0.78181,-0.84827 -1.19834,-1.26902 -0.31221,-0.31538 -0.58779,-0.55238 -1.07339,-0.7625 -0.2278,-0.0985 -0.45768,-0.14584 -0.68652,-0.21876 -0.26752,-0.0479 -0.53919,-0.10419 -0.80256,-0.14359 -1.33143,-0.19921 -0.4812,-0.0166 -1.86182,-0.25114 -0.47945,-0.0815 -1.08763,-0.19133 -1.61194,-0.39721 -0.18566,-0.0729 -0.3599,-0.18416 -0.53984,-0.27627 0.15668,0.15422 0.23943,0.37933 0.47005,0.46265 0.19502,0.0705 -0.19709,-0.26525 -0.29014,-0.39765 -0.0666,-0.0949 -0.52971,-0.79246 -0.61808,-0.88547 -0.37925,-0.39913 -0.78689,-0.79654 -1.2286,-1.1835 -0.12538,-0.1098 -0.30269,-0.19367 -0.45406,-0.29047 -0.1731,-0.0542 -0.35454,-0.1348 -0.51927,-0.16278 -0.45803,-0.0777 -0.88245,0.0123 -1.24506,0.0408 -0.37212,0.0292 -0.94201,0.0696 -1.37888,0.0304 -0.17057,-0.0152 -0.3594,-0.0639 -0.5391,-0.0958 0.16014,0.20594 0.36751,0.41517 0.48043,0.61782 0.0582,0.10459 -0.24107,-0.20867 -0.3114,-0.31448 -0.0955,-0.14366 -0.11754,-0.27733 -0.17384,-0.4155 -0.0478,-0.11745 -0.30742,-0.80834 -0.41188,-0.93766 -0.32994,-0.40842 -0.75803,-0.81098 -1.13704,-1.21647 -0.29637,-0.24469 -0.45523,-0.434 -0.88392,-0.562 -0.18507,-0.0552 -0.35235,-0.0562 -0.51799,-0.0674 -0.20384,-0.0136 -0.38877,-7.3e-4 -0.5868,-0.007 -0.72402,-0.0198 -0.58319,-0.0189 -1.34243,-0.10127 -1.07715,-0.24895 -0.37911,-0.19991 -0.14031,0.45765 0.0374,0.10286 -0.25793,-0.20797 -0.3431,-0.3165 -0.11242,-0.14333 -0.15664,-0.28201 -0.23719,-0.4233 -0.0938,-0.16446 -0.18574,-0.32873 -0.28571,-0.49389 -0.10619,-0.17546 -0.22178,-0.35182 -0.33267,-0.52774 -0.54121,-0.73082 -0.53372,-0.79924 -1.68959,-1.70527 -0.14579,-0.11426 -0.35314,-0.19236 -0.53321,-0.24915 -0.81055,-0.25566 -1.5437,-0.0523 -2.14953,-0.0174 -0.61549,0.0287 -1.07084,0.0791 -1.76107,0.004 -0.1966,-0.0212 -0.57362,-0.22605 -0.61956,-0.12171 -0.0637,0.14457 0.32497,0.41114 0.40649,0.60571 0.10202,0.24356 -1.01701,-1.25265 -0.41108,-0.74821 -0.0308,-0.52158 -0.0359,-1.03609 -0.12717,-1.57764 -0.0294,-0.17396 -0.08,-0.59924 -0.29954,-0.8408 -0.34212,-0.37644 -0.76393,-0.7423 -1.14589,-1.11345 -0.10439,-0.0601 -0.2019,-0.13667 -0.31312,-0.18054 -0.21942,-0.0866 -0.50426,-0.0732 -0.65473,-0.0628 -0.51791,0.036 -0.95514,0.15889 -1.41186,0.25495 -0.46632,0.14268 -0.62515,0.18059 -1.05454,0.35486 -0.4412,0.17905 -0.82921,0.39927 -1.26318,0.58392 z"
       inkscape:label="scribble-2" />
  </g>
</svg>
