<?xml version="1.0" encoding="UTF-8" standalone="no"?>
<!-- Created with Inkscape (http://www.inkscape.org/) -->

<svg
   width="64.816399mm"
   height="53.168041mm"
   viewBox="0 0 64.816399 53.168041"
   version="1.1"
   id="svg1"
   inkscape:version="1.3 (0e150ed6c4, 2023-07-21)"
   sodipodi:docname="placeholder.svg"
   xmlns:inkscape="http://www.inkscape.org/namespaces/inkscape"
   xmlns:sodipodi="http://sodipodi.sourceforge.net/DTD/sodipodi-0.dtd"
   xmlns="http://www.w3.org/2000/svg"
   xmlns:svg="http://www.w3.org/2000/svg">
  <sodipodi:namedview
     id="namedview1"
     pagecolor="#505050"
     bordercolor="#eeeeee"
     borderopacity="1"
     inkscape:showpageshadow="0"
     inkscape:pageopacity="0"
     inkscape:pagecheckerboard="0"
     inkscape:deskcolor="#505050"
     inkscape:document-units="mm"
     showgrid="false"
     inkscape:zoom="1.4022026"
     inkscape:cx="72.742699"
     inkscape:cy="75.238772"
     inkscape:window-width="1920"
     inkscape:window-height="1001"
     inkscape:window-x="-9"
     inkscape:window-y="-9"
     inkscape:window-maximized="1"
     inkscape:current-layer="layer1" />
  <defs
     id="defs1">
    <inkscape:path-effect
       effect="spiro"
       id="path-effect11"
       is_visible="true"
       lpeversion="1" />
    <inkscape:path-effect
       effect="fillet_chamfer"
       id="path-effect7"
       is_visible="true"
       lpeversion="1"
       nodesatellites_param="F,0,0,1,0,5,0,1 @ F,0,0,1,0,5,0,1 @ F,0,0,1,0,5,0,1 @ F,0,0,1,0,5,0,1"
       radius="0"
       unit="px"
       method="auto"
       mode="F"
       chamfer_steps="1"
       flexible="false"
       use_knot_distance="true"
       apply_no_radius="true"
       apply_with_radius="true"
       only_selected="false"
       hide_knots="false" />
    <inkscape:path-effect
       effect="spiro"
       id="path-effect1"
       is_visible="true"
       lpeversion="1" />
  </defs>
  <g
     inkscape:label="Ebene 1"
     inkscape:groupmode="layer"
     id="layer1"
     transform="translate(-14.271523,-9.4811241)">
    <path
       style="fill:none;stroke:#ffffff;stroke-width:0.79375;stroke-linecap:round;stroke-linejoin:round;stroke-dasharray:0.79375, 1.5875;stroke-dashoffset:0;stroke-opacity:1"
       id="rect3"
       width="52.456161"
       height="52.456161"
       x="14.713987"
       y="9.8374166"
       inkscape:path-effect="#path-effect7"
       sodipodi:type="rect"
       d="m 19.713987,9.8374166 h 42.456162 a 5,5 45 0 1 5,5.0000004 v 42.456161 a 5,5 135 0 1 -5,5 H 19.713987 a 5,5 45 0 1 -5,-5 V 14.837417 a 5,5 135 0 1 5,-5.0000004 z"
       transform="matrix(1.2171948,0,0,0.9984492,-3.1551915,0.05593098)" />
    <path
       style="fill:none;stroke:#ffffff;stroke-width:0.817501;stroke-linecap:round;stroke-linejoin:round;stroke-dasharray:0.860036, 1.72007;stroke-dashoffset:0.430019;stroke-opacity:0.42550144"
       id="path10"
       d="m 35.024061,22.987776 c 0.910539,-0.725215 1.907559,-1.305926 2.915782,-1.861311 1.415576,-0.732901 2.842532,-1.439061 4.290184,-2.097691 1.551936,-0.671205 3.145717,-1.218691 4.745821,-1.742778 1.308598,-0.397206 2.629329,-0.743188 3.978232,-0.941072 1.084113,-0.178524 2.165121,-0.116389 3.242448,0.06163 0.198961,0.05509 0.400218,0.101564 0.59688,0.165279 0.483804,0.156739 0.705059,0.258656 1.15276,0.509512 0.176474,0.09889 0.692304,0.421753 0.51915,0.316457 -2.937305,-1.786226 -3.700981,-2.317767 -2.351055,-1.397894 1.265923,0.87472 1.985709,2.009664 2.718018,3.376235 0.676112,1.333715 0.91117,2.819822 1.03424,4.30945 0.08753,1.336181 -0.210844,1.86806 -0.997307,2.864551 -0.866326,0.995522 -1.924555,1.766858 -2.926253,2.596561 -1.209814,0.942009 -2.416673,1.889767 -3.649949,2.796989 -1.01766,0.719836 -2.034779,1.436589 -3.009304,2.222582 -0.389465,0.393324 -0.823078,0.777388 -1.137516,1.246632 -0.386102,0.57619 -0.670644,1.252149 -0.974337,1.878801 -0.470887,0.970316 -0.864874,1.975194 -1.094815,3.039783 -0.209019,1.043452 -0.27467,2.113023 -0.117107,3.167656 0.145115,0.727321 0.447087,1.402831 0.714262,2.085661 0.291399,0.734171 0.491096,1.500082 0.81735,2.218424 0,0 3.546711,1.706027 3.546711,1.706027 v 0 C 48.933523,49.289334 48.805065,49.081875 48.712045,48.856088 48.50811,48.361082 48.42648,47.811536 48.214403,47.318708 47.954531,46.642455 47.657339,45.980369 47.43984,45.287515 47.4044,45.143827 47.35662,45.002944 47.333504,44.856453 c -0.134708,-0.853698 -0.008,-1.740971 0.139525,-2.580536 0.23848,-1.030142 0.546449,-2.036834 0.999436,-2.986787 0.520047,-1.113546 1.114901,-2.169506 2.047935,-2.952251 0.966811,-0.780791 1.970851,-1.500725 2.969506,-2.233237 1.218371,-0.936404 2.424274,-1.891003 3.653848,-2.811178 1.043232,-0.825922 2.116312,-1.633453 3.003573,-2.652001 0.880916,-1.123587 1.233917,-1.632244 1.133626,-3.149748 -0.141735,-1.535361 -0.369404,-3.081603 -1.012312,-4.482497 -0.675922,-1.327967 -1.39795,-2.631344 -2.58109,-3.523997 -1.598141,-1.171142 -0.567471,-0.434337 -4.196298,-2.629142 -0.734274,-0.444107 -1.539107,-0.724488 -2.367041,-0.891044 -1.092782,-0.155897 -2.186421,-0.134746 -3.276757,0.05721 -1.34694,0.223334 -2.673217,0.573382 -3.968159,1.026881 -1.605775,0.55571 -3.224069,1.082298 -4.788455,1.761547 -1.446594,0.675018 -2.870992,1.400513 -4.29597,2.125159 -1.057906,0.573272 -2.11101,1.157826 -3.115489,1.832117 z" />
    <path
       style="fill:none;stroke:#ffffff;stroke-width:2.2141;stroke-linecap:round;stroke-linejoin:round;stroke-dasharray:2.3293, 4.65861;stroke-dashoffset:1.16466;stroke-opacity:0.42550144"
       d="m 50.286213,50.757941 c -1.102868,-1.679819 -2.988669,-2.821294 -4.988379,-3.019463 -1.99971,-0.198169 -4.072869,0.550976 -5.483985,1.981662 -0.909527,0.922141 -1.545669,2.111026 -1.806414,3.379724 -0.260745,1.268699 -0.1449,2.612638 0.330806,3.817331 0.475706,1.204694 1.309736,2.265572 2.369153,3.010702 1.059417,0.745131 2.340345,1.171481 3.635044,1.208061 2.084529,0.05889 4.172316,-0.933349 5.443009,-2.586851 1.270693,-1.653502 1.692083,-3.926349 1.098592,-5.925474 -0.59349,-1.999125 -2.186816,-3.673853 -4.153914,-4.366136 -1.967098,-0.692282 -4.258105,-0.384572 -5.97282,0.802224"
       id="path11"
       transform="matrix(0.40976251,0,0,0.40976251,28.817814,32.357917)"
       inkscape:original-d="M 50.286213,50.757941 C 47.082178,49.832011 43.182762,49.058388 39.813849,49.72014 27.387838,52.160963 35.720573,61.984011 44.342438,61.135958 58.939181,59.700212 52.30128,49.829317 40.757305,49.059721"
       inkscape:path-effect="#path-effect11" />
    <rect
       style="fill:#000000;stroke:#ffffff;stroke-width:0.907256;stroke-linecap:round;stroke-linejoin:round;stroke-dasharray:0.954461, 1.90892;stroke-dashoffset:0.477232;fill-opacity:0.28366762"
       id="rect1"
       width="64.043922"
       height="17.078381"
       x="14.671798"
       y="26.95978"
       inkscape:label="label" />
    <rect
       style="fill:#000000;fill-opacity:0.283668;stroke:#ffffff;stroke-width:0.907256;stroke-linecap:round;stroke-linejoin:round;stroke-dasharray:0.954461, 1.90892;stroke-dashoffset:0.477232"
       id="rect2"
       width="0.53369939"
       height="0.13342485"
       x="104.46672"
       y="7.4797516" />
  </g>
</svg>
