<?xml version="1.0" encoding="UTF-8" standalone="no"?>
<!-- Created with Inkscape (http://www.inkscape.org/) -->

<svg
   width="82.114883mm"
   height="23.161158mm"
   viewBox="0 0 82.114883 23.161158"
   version="1.1"
   id="svg1"
   xml:space="preserve"
   inkscape:version="1.3 (0e150ed6c4, 2023-07-21)"
   sodipodi:docname="Logo.svg"
   inkscape:export-filename="Logo_.svg"
   inkscape:export-xdpi="96"
   inkscape:export-ydpi="96"
   xmlns:inkscape="http://www.inkscape.org/namespaces/inkscape"
   xmlns:sodipodi="http://sodipodi.sourceforge.net/DTD/sodipodi-0.dtd"
   xmlns="http://www.w3.org/2000/svg"
   xmlns:svg="http://www.w3.org/2000/svg"><sodipodi:namedview
     id="namedview1"
     pagecolor="#505050"
     bordercolor="#eeeeee"
     borderopacity="1"
     inkscape:showpageshadow="0"
     inkscape:pageopacity="0"
     inkscape:pagecheckerboard="0"
     inkscape:deskcolor="#505050"
     inkscape:document-units="mm"
     inkscape:zoom="0.99150695"
     inkscape:cx="133.13069"
     inkscape:cy="211.29453"
     inkscape:window-width="1920"
     inkscape:window-height="1001"
     inkscape:window-x="-9"
     inkscape:window-y="-9"
     inkscape:window-maximized="1"
     inkscape:current-layer="layer1" /><defs
     id="defs1" /><g
     inkscape:label="Ebene 1"
     inkscape:groupmode="layer"
     id="layer1"
     transform="translate(-1.228862,-1.7096767)"><path
       style="fill:#000000"
       d="M 1.2288619,23.511346 V 23.045679 H 2.7105287 4.1921953 V 22.326012 21.606345 H 5.927862 7.663528 v 0.724664 c 0,0.461549 0.03074,0.705664 0.08467,0.672337 0.04939,-0.03052 0.08467,-0.50888 0.08467,-1.147997 v -1.09567 h 1.905 1.905 v 1.143 1.143 h 1.904999 c 2.154423,0 2.010549,0.05764 1.777084,-0.711956 -0.217368,-0.716533 -0.301697,-0.653192 1.513776,-1.137019 0.901923,-0.240364 1.659819,-0.437025 1.684213,-0.437025 0.0244,0 0.113342,0.276225 0.197662,0.613833 0.08432,0.337608 0.167418,0.547158 0.184662,0.465667 0.02871,-0.135653 0.188144,-0.148167 1.887811,-0.148167 h 1.856459 v 0.677333 c 0,0.395112 0.03528,0.677334 0.08467,0.677334 0.05131,0 0.08467,-0.366889 0.08467,-0.931334 v -0.931333 h 1.690469 1.690469 l 0.02403,0.910167 0.02403,0.910167 1.545167,0.02308 1.545166,0.02308 v 0.463757 0.463756 H 15.283528 1.2288619 Z M 18.924195,22.574307 c 0,-0.409931 -0.01931,-0.465402 -0.148167,-0.425568 -0.08149,0.02519 -0.79134,0.216909 -1.577441,0.426036 -0.786101,0.209127 -1.449676,0.400632 -1.474611,0.425567 -0.02493,0.02493 0.684913,0.04534 1.577441,0.04534 h 1.622778 z m 25.592751,0.213069 c -1.145965,-0.453943 -1.617761,-1.90352 -1.009938,-3.103 0.641386,-1.265715 2.346926,-1.710524 3.311473,-0.86364 0.539173,0.4734 0.912778,1.509352 0.589121,1.633551 -0.07366,0.02826 -0.745738,0.05139 -1.493511,0.05139 h -1.359587 l 0.04695,0.454863 c 0.150848,1.461581 1.252059,1.928156 2.453825,1.039667 0.163676,-0.121009 0.260094,-0.145888 0.32271,-0.08327 0.126445,0.126445 -0.371809,0.604806 -0.851507,0.817511 -0.564034,0.2501 -1.452692,0.273506 -2.009532,0.05293 z m 1.561277,-2.672995 c 0.103233,-0.02767 0.21016,-0.121096 0.237616,-0.207603 0.07233,-0.227886 -0.09201,-0.74783 -0.309548,-0.979393 -0.232997,-0.248014 -0.741888,-0.27407 -0.946079,-0.04844 -0.198852,0.219729 -0.397351,0.734945 -0.397351,1.031349 v 0.256719 l 0.613833,-0.0012 c 0.337608,-6.36e-4 0.698296,-0.0238 0.801529,-0.05147 z m 3.853365,2.628772 c -0.791739,-0.394541 -1.171853,-1.138568 -1.099841,-2.152808 0.08261,-1.16345 0.893068,-2.046795 1.99066,-2.169675 0.319643,-0.03578 0.484606,-0.0026 0.804287,0.161813 l 0.402166,0.206831 -0.0012,-1.067984 c -0.0014,-1.322569 -0.02523,-1.416617 -0.388772,-1.536598 -0.514079,-0.169662 -0.305643,-0.251054 0.642922,-0.251054 h 0.930327 l 0.02217,3.238501 0.02217,3.2385 0.318031,0.155393 c 0.174916,0.08547 0.296493,0.190241 0.270169,0.232833 -0.02632,0.04259 -0.445662,0.07744 -0.931863,0.07744 H 52.02881 V 22.563402 22.25046 l -0.275166,0.26045 c -0.151342,0.143247 -0.358387,0.303121 -0.460101,0.355275 -0.3175,0.1628 -0.892677,0.110843 -1.362005,-0.123033 z m 1.577125,-0.419912 c 0.140164,-0.11794 0.301693,-0.356065 0.358953,-0.529166 0.118995,-0.359729 0.151719,-1.768608 0.05199,-2.238404 -0.168774,-0.795066 -0.911228,-1.1067 -1.361569,-0.5715 -0.281069,0.334032 -0.350745,0.693534 -0.344113,1.775508 0.0045,0.741216 0.03611,0.948062 0.189905,1.244293 0.30086,0.579508 0.669093,0.685919 1.104832,0.319269 z m 13.337674,0.554792 c -0.489496,-0.197779 -0.720303,-0.862059 -0.495093,-1.424914 0.171384,-0.42833 0.376908,-0.58083 1.266566,-0.939791 0.828718,-0.334374 1.058333,-0.562586 1.058333,-1.051865 0,-0.53287 -0.187052,-0.748791 -0.621225,-0.717098 -0.339794,0.0248 -0.356504,0.04004 -0.508184,0.46324 -0.116587,0.325292 -0.218335,0.463066 -0.396472,0.536853 -0.307566,0.127398 -0.579655,0.03952 -0.677927,-0.218956 -0.152625,-0.401433 0.161578,-0.80924 0.782358,-1.01543 0.540145,-0.179407 1.587134,-0.136331 2.039013,0.08389 0.501151,0.244234 0.545052,0.406931 0.580747,2.152254 0.02893,1.414732 0.04627,1.563482 0.194907,1.672166 0.08973,0.06561 0.254291,0.119297 0.365688,0.119297 0.368269,0 0.148692,0.208436 -0.32587,0.309336 -0.924481,0.19656 -1.433035,0.09966 -1.433035,-0.27305 0,-0.142507 -0.218398,-0.162387 -0.301782,-0.02747 -0.183622,0.297107 -1.113758,0.49892 -1.528024,0.331538 z m 1.407362,-0.65068 c 0.336309,-0.198663 0.422444,-0.446727 0.422444,-1.216606 v -0.672298 l -0.486833,0.304114 c -0.267758,0.167263 -0.553508,0.38056 -0.635,0.473995 -0.210855,0.241756 -0.198716,0.862572 0.02117,1.082454 0.206234,0.206235 0.365784,0.212902 0.678222,0.02834 z m -34.714221,0.521993 c 0,-0.06985 0.07441,-0.127 0.165349,-0.127 0.293092,0 0.599071,-0.192539 0.662181,-0.416682 0.03381,-0.120075 0.06147,-1.363053 0.06147,-2.762172 0,-2.292778 -0.01482,-2.566454 -0.150119,-2.772834 -0.101823,-0.155313 -0.224397,-0.229397 -0.381,-0.230276 -0.276105,-0.0016 -0.48383,-0.11741 -0.413764,-0.23078 0.02834,-0.04586 0.914825,-0.10713 2.02168,-0.139728 2.170848,-0.06393 2.684991,0.0016 3.289766,0.419201 0.37307,0.257618 0.671103,0.769522 0.671103,1.152691 0,0.733702 -0.694021,1.475963 -1.561569,1.670112 l -0.492271,0.110166 0.478748,0.194577 c 0.263312,0.107018 0.53771,0.243512 0.609775,0.30332 0.198634,0.164852 0.41277,0.634592 0.658582,1.444699 0.24669,0.813003 0.455301,1.079468 0.957476,1.223013 0.177609,0.05077 0.31351,0.126969 0.302002,0.169333 -0.01151,0.04237 -0.533807,0.08762 -1.160664,0.100559 -1.125436,0.02324 -1.141433,0.02095 -1.274594,-0.182278 -0.07417,-0.113196 -0.231205,-0.676236 -0.34897,-1.2512 -0.117765,-0.574964 -0.279028,-1.159688 -0.358363,-1.299388 -0.178303,-0.313972 -0.628212,-0.550028 -1.048652,-0.550202 l -0.3175,-1.32e-4 v 1.312334 c 0,1.476327 0.04128,1.587537 0.630278,1.698033 0.173324,0.03252 0.301055,0.106364 0.301055,0.174056 0,0.09631 -0.298693,0.117578 -1.650999,0.117578 -1.411112,0 -1.651,-0.01845 -1.651,-0.127 z m 3.555999,-3.790087 c 0.264192,-0.131227 0.428912,-0.287316 0.537276,-0.509124 0.191007,-0.39097 0.198652,-1.056889 0.01619,-1.409743 -0.23499,-0.45442 -0.836115,-0.721415 -1.415598,-0.628752 l -0.323196,0.05168 v 1.397687 1.397687 l 0.402167,-0.0551 c 0.221192,-0.0303 0.573616,-0.140255 0.783166,-0.244341 z m 4.253204,3.815143 c 0.01869,-0.05607 0.16468,-0.135811 0.324423,-0.177205 0.159744,-0.04139 0.318494,-0.119344 0.352778,-0.173223 0.07688,-0.120815 0.06956,-3.06924 -0.0083,-3.346935 -0.03693,-0.131698 -0.158054,-0.233844 -0.351393,-0.296334 -0.162273,-0.05245 -0.286485,-0.13346 -0.276028,-0.180026 0.02029,-0.09034 0.711113,-0.187379 1.441487,-0.202478 l 0.4445,-0.0092 v 1.931151 c 0,2.092589 0.01523,2.168305 0.460248,2.28732 0.136612,0.03654 0.263567,0.111976 0.282124,0.167645 0.02524,0.07573 -0.310939,0.101218 -1.335039,0.101218 -1.029538,0 -1.360355,-0.02527 -1.334796,-0.101944 z m 15.558796,-0.02506 c 0,-0.07488 0.07819,-0.127533 0.1905,-0.128297 0.431604,-0.0029 0.442557,-0.04522 0.472232,-1.823076 0.02473,-1.481345 0.01183,-1.679023 -0.118956,-1.82354 -0.08068,-0.08915 -0.207457,-0.162671 -0.281732,-0.163384 -0.07427,-7.13e-4 -0.191876,-0.03723 -0.261336,-0.08114 -0.243292,-0.153814 0.03831,-0.243753 0.951792,-0.303988 l 0.910167,-0.06002 v 0.400081 0.400081 l 0.265305,-0.22324 c 0.773004,-0.65044 1.563006,-0.729216 2.197719,-0.219146 l 0.346443,0.278409 0.249425,-0.184408 c 0.577253,-0.426782 1.481937,-0.552728 2.013927,-0.28037 0.527677,0.27015 0.599847,0.53992 0.599847,2.242214 0,1.391266 0.01271,1.516864 0.169333,1.673488 0.09313,0.09313 0.226484,0.169334 0.296334,0.169334 0.06985,0 0.127,0.05715 0.127,0.127 0,0.106841 -0.188148,0.127 -1.185334,0.127 -0.967718,0 -1.185333,-0.02208 -1.185333,-0.120273 0,-0.06615 0.112573,-0.144998 0.250162,-0.175218 0.153297,-0.03367 0.272884,-0.126429 0.308842,-0.23956 0.03227,-0.101539 0.05871,-0.813731 0.05876,-1.58265 8.4e-5,-1.535448 -0.08754,-1.894996 -0.48619,-1.995051 -0.287497,-0.07216 -0.482434,0.0083 -0.790464,0.32606 -0.319588,0.329731 -0.437442,0.952663 -0.440096,2.326191 -0.0015,0.756279 0.02009,0.889601 0.167656,1.037167 0.09313,0.09313 0.245533,0.169334 0.338666,0.169334 0.09407,0 0.169334,0.05644 0.169334,0.127 0,0.107049 -0.192852,0.127 -1.227667,0.127 -1.231559,0 -1.51753,-0.07709 -0.980455,-0.264321 0.135967,-0.0474 0.272171,-0.150191 0.302675,-0.228429 0.08931,-0.229067 0.156801,-2.223445 0.09231,-2.727875 -0.07672,-0.60011 -0.222249,-0.792576 -0.599272,-0.792576 -0.362531,0 -0.732225,0.325424 -0.883679,0.77786 -0.05787,0.172887 -0.125734,0.812788 -0.150799,1.422001 -0.04975,1.209122 0.0037,1.435999 0.358997,1.525185 0.115073,0.02888 0.209223,0.105531 0.209223,0.170333 0,0.09523 -0.235357,0.117822 -1.227666,0.117822 -1.034815,0 -1.227667,-0.01995 -1.227667,-0.127 z m 14.60463,0.04173 c -0.02898,-0.0469 0.0069,-0.104046 0.07967,-0.127 0.0728,-0.02295 0.190088,-0.05981 0.260637,-0.0819 0.07055,-0.02209 0.1669,-0.141768 0.214115,-0.265951 0.114141,-0.300215 0.12384,-3.096205 0.01147,-3.306174 -0.04771,-0.08914 -0.184943,-0.214636 -0.304965,-0.27887 -0.120022,-0.06423 -0.218222,-0.143688 -0.218222,-0.176565 0,-0.09376 0.476318,-0.16561 1.097848,-0.16561 h 0.568682 l 0.09807,0.327323 c 0.05394,0.180028 0.09807,0.39751 0.09807,0.483295 0,0.120724 0.08132,0.07636 0.359834,-0.196315 0.633544,-0.620258 1.322684,-0.773973 1.932739,-0.431103 0.528645,0.297116 0.585909,0.515745 0.58739,2.242596 7.14e-4,0.831162 0.03006,1.556446 0.06522,1.611741 0.03516,0.0553 0.167926,0.140077 0.295036,0.188404 0.495769,0.188491 0.229639,0.261393 -0.954223,0.261393 -1.217975,0 -1.396467,-0.0558 -0.937556,-0.293116 0.212851,-0.110069 0.255826,-0.192548 0.304875,-0.585122 0.0314,-0.251345 0.04373,-0.979113 0.02739,-1.61726 -0.02815,-1.099582 -0.04016,-1.168731 -0.229587,-1.322053 -0.297229,-0.240578 -0.558267,-0.200947 -0.883727,0.134168 -0.481988,0.496288 -0.748754,1.710966 -0.613502,2.793488 0.05447,0.435968 0.08659,0.49655 0.307467,0.579922 0.135653,0.0512 0.246641,0.141894 0.246641,0.201535 0,0.136 -2.329812,0.158371 -2.413369,0.02317 z m 6.223369,-0.04173 c 0,-0.07006 0.07504,-0.127 0.167382,-0.127 0.09206,0 0.230228,-0.09592 0.30704,-0.213147 0.116011,-0.177054 0.141431,-0.479316 0.150119,-1.785014 l 0.01046,-1.571867 -0.227149,-0.195703 c -0.124932,-0.107636 -0.277332,-0.213564 -0.338667,-0.235395 -0.263203,-0.09368 0.07763,-0.184766 0.811477,-0.216862 l 0.789421,-0.03453 0.09629,0.276225 c 0.05296,0.151923 0.09629,0.36932 0.09629,0.483103 0,0.195791 0.02305,0.186151 0.430161,-0.179873 0.636423,-0.572199 1.248545,-0.700759 1.857467,-0.39011 0.572523,0.292079 0.631095,0.502655 0.605884,2.178258 -0.02343,1.557138 0.01478,1.751321 0.371302,1.886869 0.470671,0.178949 0.186809,0.252043 -0.978814,0.252043 -1.214927,0 -1.396192,-0.05595 -0.942095,-0.290769 0.133781,-0.06918 0.266611,-0.213034 0.295177,-0.319674 0.08828,-0.329573 0.05947,-2.75147 -0.03571,-3.001823 -0.182237,-0.479318 -0.562527,-0.496499 -1.013247,-0.04578 -0.42848,0.42848 -0.614503,1.071628 -0.617245,2.134044 -0.0025,0.981101 0.03931,1.120851 0.373314,1.246925 0.504565,0.190451 0.18301,0.277076 -1.028522,0.277076 -0.992744,0 -1.180337,-0.02018 -1.180337,-0.127 z M 18.924195,21.267679 c 0,-0.164202 0.05644,-0.169334 1.862666,-0.169334 1.806222,0 1.862667,0.0051 1.862667,0.169334 0,0.164202 -0.05645,0.169333 -1.862667,0.169333 -1.806222,0 -1.862666,-0.0051 -1.862666,-0.169333 z M 4.1921953,21.183012 c 0,-0.163826 0.056444,-0.169333 1.7356667,-0.169333 1.679222,0 1.735666,0.0055 1.735666,0.169333 0,0.163827 -0.05644,0.169333 -1.735666,0.169333 -1.6792223,0 -1.7356667,-0.0055 -1.7356667,-0.169333 z m 10.8522917,0.0294 c 0.01922,-0.09826 0.254281,-0.199868 0.789374,-0.341215 0.4191,-0.110706 1.168199,-0.310356 1.664664,-0.443666 0.83838,-0.22512 0.905447,-0.231739 0.941743,-0.09294 0.03369,0.128846 -0.185401,0.209262 -1.590024,0.583596 -0.896006,0.238787 -1.675009,0.434158 -1.731117,0.434158 -0.05611,0 -0.0897,-0.06297 -0.07464,-0.139929 z m 7.774374,-0.452733 c 0,-0.163689 0.05645,-0.169334 1.693333,-0.169334 1.636889,0 1.693334,0.0056 1.693334,0.169334 0,0.163689 -0.05645,0.169333 -1.693334,0.169333 -1.636888,0 -1.693333,-0.0056 -1.693333,-0.169333 z m -7.919402,-0.02642 c -0.09396,-0.262108 -2.663931,-9.92984 -2.663931,-10.021179 0,-0.05744 0.123825,-0.138355 0.275167,-0.179808 1.636834,-0.44834 3.03483,-0.7994824 3.064567,-0.7697444 0.04397,0.04397 2.692056,9.8877144 2.704964,10.0551874 0.0093,0.120527 -0.111564,0.159629 -2.218206,0.717698 -0.804751,0.213186 -1.136805,0.269696 -1.162561,0.197846 z m 4.024736,-5.265243 v -5.376334 h 1.862666 1.862667 v 5.376334 5.376333 H 20.786861 18.924195 Z M 4.1921953,12.375925 V 3.9921708 l 1.7144997,0.02292 1.7145,0.02292 0.02158,8.3608342 0.02158,8.360834 H 5.928275 4.1921953 Z m 3.6406667,7.96042 c 0,-0.164316 0.05644,-0.169333 1.905,-0.169333 1.848555,0 1.905,0.005 1.905,0.169333 0,0.164316 -0.05645,0.169334 -1.905,0.169334 -1.848556,0 -1.905,-0.005 -1.905,-0.169334 z M 22.818861,14.663678 V 8.9910108 h 1.693333 1.693334 v 5.6726672 5.672667 H 24.512194 22.818861 Z M 7.832862,14.706008 V 9.4990066 h 1.905 1.905 v 5.2070014 5.207 h -1.905 -1.905 z m 32.166819,2.419513 c -0.311003,-0.311003 -0.325367,-0.659752 -0.03986,-0.967817 0.433676,-0.467944 1.235113,-0.161053 1.229017,0.470622 -0.003,0.310784 -0.117819,0.49914 -0.393908,0.646186 -0.298164,0.158803 -0.531091,0.115163 -0.795246,-0.148991 z M 12.066644,10.197512 c 3.68e-4,-0.121132 0.305023,-0.2285284 1.66969,-0.5885914 1.230985,-0.3247908 1.685636,-0.4138928 1.731691,-0.3393738 0.03435,0.05558 0.03546,0.126625 0.0025,0.157885 -0.0561,0.05316 -3.203932,0.9182462 -3.341287,0.9182462 -0.03466,0 -0.06282,-0.06668 -0.06257,-0.148166 z m 6.857551,-0.5291674 c 0,-0.164202 0.05644,-0.169334 1.862666,-0.169334 1.806222,0 1.862667,0.0051 1.862667,0.169334 0,0.164202 -0.05645,0.169333 -1.862667,0.169333 -1.806222,0 -1.862666,-0.0051 -1.862666,-0.169333 z M 11.796082,9.1961848 c -0.09601,-0.401251 -0.106453,-0.566165 -0.03739,-0.590252 0.562112,-0.196048 3.241341,-0.863 3.284718,-0.817678 0.07088,0.07406 0.329005,1.057427 0.288259,1.098173 -0.04968,0.04968 -3.129197,0.8649238 -3.270414,0.8657818 -0.0928,5.64e-4 -0.171465,-0.164386 -0.265171,-0.5560248 z m 7.128113,-0.79784 v -0.846667 h 1.862666 1.862667 v 0.846667 0.846666 h -1.862667 -1.862666 z m -11.091333,0.635 c 0,-0.109126 0.268111,-0.127 1.905,-0.127 1.636888,0 1.905,0.01787 1.905,0.127 0,0.109126 -0.268112,0.127 -1.905,0.127 -1.636889,0 -1.905,-0.01787 -1.905,-0.127 z m 14.985999,-0.465667 c 0,-0.163689 0.05645,-0.169333 1.693333,-0.169333 1.636889,0 1.693334,0.0056 1.693334,0.169333 0,0.163689 -0.05645,0.169333 -1.693334,0.169333 -1.636888,0 -1.693333,-0.0056 -1.693333,-0.169333 z m -14.985999,-0.889 v -0.973667 h 1.905 1.905 v 0.973667 0.973667 h -1.905 -1.905 z m 14.985999,-0.423333 v -0.889001 h 1.693333 1.693334 v 0.889001 0.889 H 24.512194 22.818861 Z M 4.1921953,3.6146768 c 0,-0.108758 0.2492963,-0.127 1.7356667,-0.127 1.48637,0 1.735666,0.01824 1.735666,0.127 0,0.108759 -0.249296,0.127 -1.735666,0.127 -1.4863704,0 -1.7356667,-0.01824 -1.7356667,-0.127 z m 0,-1.185333 V 1.7096768 H 5.927862 7.663528 v 0.719667 0.719667 H 5.927862 4.1921953 Z"
       id="path1"
       sodipodi:nodetypes="ccccccccssscccccssssssscsssccccccccccccssssscsssssscsssssscsssscccccsssccsscccssscccssccsssscsssssssssssssssssssssscsssssssssscssssscsssssssssscssssssssscccsssssssssscssssssscssssscccsscssssssssssssccssssssssssssssssssssssscsssssssssssssssssssssscssscssssssssssscssssssssssssssssssssssssssssssssssccccccccccccccccccsssssccccccccccccccccccsssssscsscsccsssssssssssscccccccccssssssssssccccccccccccccccccsssssccccccccc" /><text
       xml:space="preserve"
       style="font-size:9.87778px;line-height:0;letter-spacing:1.02923px;fill:#000000;stroke-width:0.264583"
       x="31.421551"
       y="12.341803"
       id="text1"><tspan
         sodipodi:role="line"
         id="tspan1"
         style="font-style:normal;font-variant:normal;font-weight:600;font-stretch:normal;font-size:9.87778px;line-height:0;font-family:'Georgia Pro';-inkscape-font-specification:'Georgia Pro Semi-Bold';letter-spacing:1.02923px;stroke-width:0.264583"
         x="31.421551"
         y="12.341803">Library</tspan></text></g></svg>
